<svg width="56" height="15" viewBox="0 0 56 15" fill="none" xmlns="http://www.w3.org/2000/svg">
<path d="M10.7299 14.5136C14.6957 14.5326 18.3155 11.2786 18.3155 7.31988C18.3155 2.99084 14.6957 -0.00143932 10.7299 5.19397e-07H7.31677C3.3034 -0.00143932 0 2.99174 0 7.31988C0 11.2794 3.3034 14.5326 7.31677 14.5136H10.7299Z" fill="#0079BE"/>
<path d="M7.33449 0.599854C3.66718 0.601005 0.695444 3.57428 0.69458 7.24389C0.695444 10.9129 3.66715 13.8859 7.33449 13.887C11.0027 13.8859 13.975 10.9129 13.9755 7.24389C13.975 3.57428 11.0027 0.601005 7.33449 0.599854ZM3.12564 7.24389C3.12909 5.45071 4.24875 3.9216 5.82761 3.31396V11.1729C4.24875 10.5656 3.12906 9.03733 3.12564 7.24389ZM8.8408 11.1746V3.3137C10.4202 3.91987 11.5416 5.44985 11.5445 7.24389C11.5416 9.03849 10.4202 10.5673 8.8408 11.1746Z" fill="white"/>
<path d="M20.6439 3.12254C20.6439 2.43599 20.286 2.48121 19.9428 2.47375V2.27534C20.2402 2.29002 20.5451 2.29002 20.8431 2.29002C21.1635 2.29002 21.5986 2.27534 22.1634 2.27534C24.139 2.27534 25.2149 3.59538 25.2149 4.94708C25.2149 5.703 24.7727 7.6033 22.0716 7.6033C21.6826 7.6033 21.3236 7.5883 20.9651 7.5883C20.622 7.5883 20.286 7.59582 19.9428 7.6033V7.40518C20.4003 7.35908 20.622 7.34384 20.6438 6.82464V3.12254H20.6439ZM21.3918 6.70283C21.3918 7.29057 21.8119 7.35911 22.1856 7.35911C23.8341 7.35911 24.3754 6.11479 24.3754 4.97732C24.3754 3.55043 23.4596 2.52008 21.9873 2.52008C21.674 2.52008 21.5301 2.54254 21.3919 2.55063L21.3918 6.70283ZM25.4826 7.40521H25.6272C25.8405 7.40521 25.9934 7.40521 25.9934 7.15263V5.08447C25.9934 4.74902 25.8791 4.70234 25.5967 4.55058V4.42819C25.9551 4.32049 26.383 4.17651 26.4129 4.15347C26.4667 4.12294 26.5122 4.11488 26.5505 4.11488C26.5882 4.11488 26.604 4.16096 26.604 4.22229V7.15263C26.604 7.40521 26.7719 7.40521 26.9855 7.40521H27.1151V7.60362C26.8553 7.60362 26.5882 7.58839 26.3141 7.58839C26.0395 7.58839 25.7645 7.59587 25.4827 7.60362V7.40521H25.4826ZM26.2988 2.93965C26.1002 2.93965 25.9252 2.75653 25.9252 2.55809C25.9252 2.36688 26.1083 2.19093 26.2988 2.19093C26.4966 2.19093 26.6728 2.35194 26.6728 2.55809C26.6728 2.76428 26.5044 2.93965 26.2988 2.93965ZM27.8399 5.12997C27.8399 4.84776 27.7556 4.77174 27.3977 4.6266V4.48178C27.7256 4.37494 28.038 4.2756 28.4045 4.11491C28.4273 4.11491 28.4497 4.13046 28.4497 4.19122V4.68765C28.8853 4.37495 29.2593 4.11488 29.7712 4.11488C30.4189 4.11488 30.6478 4.58827 30.6478 5.1835V7.15266C30.6478 7.40521 30.8156 7.40521 31.0296 7.40521H31.1669V7.60362C30.8991 7.60362 30.6323 7.58839 30.3582 7.58839C30.0832 7.58839 29.8082 7.59587 29.5339 7.60362V7.40521H29.6709C29.8851 7.40521 30.0369 7.40521 30.0369 7.15266V5.1763C30.0369 4.74061 29.7712 4.52722 29.3355 4.52722C29.0917 4.52722 28.7024 4.72566 28.4497 4.89381V7.1526C28.4497 7.40518 28.6183 7.40518 28.8323 7.40518H28.9694V7.60359C28.7024 7.60359 28.435 7.58833 28.1603 7.58833C27.8859 7.58833 27.6107 7.59585 27.3363 7.60359V7.40518H27.474C27.6876 7.40518 27.8399 7.40518 27.8399 7.1526V5.12997H27.8399ZM31.747 5.49681C31.7312 5.56567 31.7312 5.67996 31.747 5.93971C31.792 6.66453 32.2586 7.25979 32.8681 7.25979C33.2881 7.25979 33.6169 7.03085 33.8988 6.74864L34.0053 6.85577C33.6541 7.32112 33.2193 7.71792 32.594 7.71792C31.3805 7.71792 31.1363 6.54214 31.1363 6.05406C31.1363 4.55775 32.1434 4.11485 32.6772 4.11485C33.2956 4.11485 33.9598 4.50393 33.967 5.31309C33.967 5.35945 33.967 5.40466 33.9598 5.45103L33.8907 5.49681H31.747ZM33.0979 5.25236C33.2882 5.25236 33.3107 5.15301 33.3107 5.06172C33.3107 4.67236 33.0743 4.35934 32.6467 4.35934C32.1818 4.35934 31.8613 4.70231 31.7698 5.25236H33.0979ZM34.1427 7.40521H34.3488C34.5618 7.40521 34.7145 7.40521 34.7145 7.15263V5.00813C34.7145 4.77171 34.4326 4.72563 34.3177 4.66458V4.55055C34.8748 4.31355 35.1803 4.11485 35.2497 4.11485C35.2949 4.11485 35.3173 4.13789 35.3173 4.21449V4.90129H35.3335C35.5237 4.60382 35.8448 4.11485 36.3097 4.11485C36.5006 4.11485 36.7445 4.24444 36.7445 4.51945C36.7445 4.72563 36.6 4.90936 36.3864 4.90936C36.1488 4.90936 36.1488 4.72563 35.8822 4.72563C35.7524 4.72563 35.3254 4.90129 35.3254 5.35945V7.15263C35.3254 7.40518 35.4777 7.40518 35.6916 7.40518H36.1186V7.60362C35.6988 7.59582 35.3795 7.58836 35.0507 7.58836C34.7381 7.58836 34.4174 7.59585 34.1427 7.60362V7.40521H34.1427ZM37.0804 6.54214C37.1798 7.04608 37.4847 7.47375 38.042 7.47375C38.4912 7.47375 38.6593 7.19903 38.6593 6.93179C38.6593 6.03102 36.9963 6.32101 36.9963 5.09225C36.9963 4.66461 37.3401 4.11488 38.179 4.11488C38.4229 4.11488 38.7508 4.18399 39.0482 4.3369L39.1023 5.11474H38.9265C38.8504 4.63438 38.5836 4.35939 38.0947 4.35939C37.7895 4.35939 37.4999 4.53508 37.4999 4.86305C37.4999 5.75691 39.2699 5.48132 39.2699 6.67956C39.2699 7.18322 38.8654 7.71797 37.9574 7.71797C37.6522 7.71797 37.2937 7.61114 37.0269 7.4588L36.9428 6.58081L37.0804 6.54214ZM46.1598 3.65698H45.9694C45.8243 2.76428 45.191 2.40518 44.3368 2.40518C43.4587 2.40518 42.1844 2.99261 42.1844 4.82441C42.1844 6.36734 43.2839 7.47369 44.4585 7.47369C45.2137 7.47369 45.8399 6.95477 45.9925 6.15309L46.1675 6.19859L45.9925 7.313C45.672 7.51199 44.8097 7.71792 44.3056 7.71792C42.5206 7.71792 41.3917 6.56521 41.3917 4.84773C41.3917 3.28291 42.7878 2.16041 44.2831 2.16041C44.901 2.16041 45.4961 2.35968 46.0837 2.56587L46.1598 3.65698ZM46.435 7.40521H46.5795C46.7935 7.40521 46.9466 7.40521 46.9466 7.15263V2.90167C46.9466 2.40521 46.832 2.38992 46.5418 2.30612V2.18402C46.847 2.08499 47.1674 1.94731 47.3278 1.85548C47.411 1.80998 47.4726 1.77136 47.495 1.77136C47.5417 1.77136 47.5569 1.81747 47.5569 1.87877V7.15263C47.5569 7.40521 47.7245 7.40521 47.9384 7.40521H48.0671V7.60362C47.8089 7.60362 47.5417 7.58836 47.2667 7.58836C46.9924 7.58836 46.7177 7.59587 46.435 7.60362V7.40521H46.435ZM51.3341 7.18319C51.3341 7.32112 51.4176 7.32861 51.5472 7.32861C51.639 7.32861 51.753 7.32112 51.8526 7.32112V7.48181C51.5242 7.51205 50.8985 7.67245 50.7534 7.71794L50.7151 7.69488V7.07721C50.258 7.45097 49.9064 7.71794 49.3643 7.71794C48.9523 7.71794 48.5251 7.45097 48.5251 6.81024V4.85551C48.5251 4.6571 48.4948 4.46614 48.0682 4.42816V4.28303C48.3432 4.27554 48.9524 4.22972 49.0519 4.22972C49.1366 4.22972 49.1366 4.28303 49.1366 4.45091V6.41972C49.1366 6.64926 49.1366 7.30552 49.7999 7.30552C50.0593 7.30552 50.4025 7.10711 50.7227 6.84073V4.78637C50.7227 4.63432 50.3567 4.55052 50.0827 4.47389V4.33653C50.7684 4.29045 51.1965 4.22969 51.2723 4.22969C51.3341 4.22969 51.3341 4.28297 51.3341 4.36734V7.18319H51.3341ZM52.8524 4.66461C53.1573 4.40512 53.5692 4.11488 53.9892 4.11488C54.8745 4.11488 55.4081 4.88664 55.4081 5.71797C55.4081 6.71783 54.6759 7.71792 53.5841 7.71792C53.0198 7.71792 52.7224 7.53448 52.5238 7.45094L52.2952 7.62603L52.1355 7.54254C52.2031 7.09216 52.242 6.64926 52.242 6.18391V2.90164C52.242 2.40521 52.1268 2.38992 51.8371 2.30612V2.18402C52.1432 2.08499 52.4627 1.94731 52.6231 1.85545C52.7072 1.80995 52.7679 1.77136 52.7916 1.77136C52.837 1.77136 52.8523 1.81747 52.8523 1.87877V4.66458H52.8524V4.66461ZM52.8524 6.74058C52.8524 7.03085 53.1267 7.51982 53.638 7.51982C54.4545 7.51982 54.7977 6.71783 54.7977 6.03825C54.7977 5.21409 54.1727 4.52728 53.5773 4.52728C53.2943 4.52728 53.0582 4.71072 52.8523 4.88664V6.74058H52.8524ZM19.9341 12.0415H19.9925C20.1417 12.0415 20.2994 12.0213 20.2994 11.8051V9.62916C20.2994 9.41258 20.1417 9.39217 19.9925 9.39217H19.9341V9.26748C20.0962 9.26748 20.3452 9.28389 20.5493 9.28389C20.7566 9.28389 21.0054 9.26748 21.2006 9.26748V9.39217H21.1421C20.9933 9.39217 20.8352 9.41261 20.8352 9.62916V11.8051C20.8352 12.0213 20.9933 12.0415 21.1421 12.0415H21.2006V12.1668C21.0013 12.1668 20.7517 12.1504 20.5447 12.1504C20.3412 12.1504 20.0962 12.1668 19.9341 12.1668V12.0415Z" fill="#211E1F"/>
<path d="M21.2003 12.1843C20.9997 12.1843 20.7509 12.1676 20.5442 12.1676C20.3412 12.1676 20.0971 12.1843 19.9338 12.1843H19.916V12.0236H19.992C20.1426 12.0202 20.2796 12.0081 20.2811 11.8051V9.62914C20.2796 9.42612 20.1426 9.41256 19.992 9.40971H19.916V9.24902H19.9338C20.0971 9.24902 20.3459 9.26544 20.5488 9.26544C20.7555 9.26544 21.004 9.24902 21.2003 9.24902H21.2188V9.40971H21.1422C20.9916 9.41259 20.8537 9.42612 20.8528 9.62914V11.8051C20.8537 12.0081 20.9916 12.0202 21.1422 12.0236H21.2187V12.1843H21.2003ZM21.1825 12.1489V12.0602H21.1422C20.9939 12.0602 20.8174 12.0345 20.8165 11.8051V9.62914C20.8174 9.39963 20.9939 9.37371 21.1422 9.37371H21.1825V9.2856C20.9907 9.2856 20.7503 9.30172 20.5488 9.30172C20.3516 9.30172 20.1129 9.28675 19.9523 9.2856V9.37371H19.992C20.14 9.37371 20.317 9.39963 20.317 9.62914V11.8051C20.317 12.0346 20.14 12.0602 19.992 12.0602H19.9523V12.1489C20.1129 12.1471 20.3475 12.1322 20.5442 12.1322C20.7463 12.1322 20.9867 12.1477 21.1825 12.1489ZM24.0526 11.348L24.0609 11.34V9.78263C24.0609 9.44167 23.824 9.39214 23.6996 9.39214H23.608V9.26742C23.8035 9.26742 23.9944 9.28384 24.1893 9.28384C24.3594 9.28384 24.5305 9.26742 24.7003 9.26742V9.39214H24.6381C24.4634 9.39214 24.2682 9.42523 24.2682 9.91941V11.8096C24.2682 11.9548 24.2725 12.0999 24.2929 12.2287H24.1349L21.9972 9.84457V11.556C21.9972 11.9174 22.0672 12.0415 22.3873 12.0415H22.4575V12.1667C22.2794 12.1667 22.1011 12.1503 21.9223 12.1503C21.736 12.1503 21.5449 12.1667 21.3578 12.1667V12.0415H21.4159C21.7024 12.0415 21.7894 11.8468 21.7894 11.5148V9.76538C21.7894 9.53299 21.5979 9.39217 21.4119 9.39217H21.3578V9.26748C21.5155 9.26748 21.6774 9.28387 21.8349 9.28387C21.9595 9.28387 22.0802 9.26748 22.2045 9.26748L24.0526 11.348Z" fill="#211E1F"/>
<path d="M24.2933 12.2468L24.122 12.2404L22.0151 9.89147V11.5559C22.02 11.917 22.075 12.0196 22.3876 12.0236H22.4766V12.1843H22.4582C22.2785 12.1843 22.0997 12.1676 21.9226 12.1676C21.7366 12.1676 21.5461 12.1843 21.3578 12.1843H21.3396V12.0236H21.4162C21.6906 12.0222 21.7689 11.8459 21.7721 11.5148V9.76563C21.7715 9.54446 21.5901 9.41027 21.4122 9.40969H21.3396V9.24958H21.3577C21.5164 9.24958 21.679 9.26542 21.8348 9.26542C21.9583 9.26542 22.0787 9.24958 22.2186 9.25563L24.0433 11.3103V9.78293C24.041 9.45234 23.8208 9.4126 23.6998 9.40969H23.5898V9.24958H23.6083C23.8044 9.24958 23.9955 9.26542 24.1895 9.26542C24.3585 9.26542 24.5287 9.24958 24.7003 9.24958H24.7184V9.40967H24.6384C24.4671 9.41459 24.2912 9.42954 24.2863 9.91937V11.8093C24.2863 11.9545 24.2906 12.0996 24.3108 12.2254L24.3148 12.2467H24.2933V12.2468ZM24.1355 12.2102H24.2728C24.2542 12.0855 24.251 11.9473 24.251 11.8093V9.91937C24.251 9.4209 24.4597 9.3737 24.6385 9.3737H24.6822V9.28555C24.5187 9.2867 24.3546 9.30168 24.1897 9.30168C23.9996 9.30168 23.8148 9.2867 23.6268 9.28555L23.6265 9.3737H23.6999C23.8275 9.3737 24.0794 9.43069 24.0794 9.7829L24.0736 11.3523L24.0653 11.361L24.0512 11.3739L22.2049 9.28555C22.0817 9.28555 21.9613 9.30168 21.8349 9.30168C21.6826 9.30168 21.5269 9.2867 21.3763 9.28555L21.3754 9.37367H21.4123C21.6072 9.37367 21.8073 9.52255 21.8073 9.7656V11.5147C21.8073 11.8467 21.7149 12.0592 21.4163 12.0604L21.3763 12.0592V12.1488C21.5562 12.1471 21.7411 12.1321 21.9227 12.1321C22.096 12.1321 22.2685 12.1471 22.44 12.1488V12.0604H22.3877C22.0609 12.0592 21.9797 11.917 21.9794 11.5559V9.79782L24.1355 12.2102ZM24.0529 11.3477L24.0661 11.3356L24.0529 11.3477ZM24.0434 11.3397V11.3382L24.0399 11.3353L24.0434 11.3397ZM25.3222 9.47475C25.0104 9.47475 24.9986 9.54965 24.9365 9.85256H24.8118C24.8282 9.73651 24.8489 9.62046 24.8616 9.49951C24.8783 9.38317 24.8863 9.26738 24.8863 9.14704H24.9862C25.0196 9.27173 25.1233 9.26741 25.2359 9.26741H27.3776C27.4898 9.26741 27.5935 9.26338 27.6021 9.13843L27.7012 9.15513C27.685 9.26741 27.6683 9.37946 27.6557 9.49174C27.6482 9.60379 27.6482 9.71607 27.6482 9.8278L27.5232 9.87416C27.5146 9.72067 27.4939 9.47475 27.216 9.47475H26.5352V11.6846C26.5352 12.0048 26.6806 12.0414 26.8792 12.0414H26.9584V12.1667C26.7966 12.1667 26.5055 12.1503 26.2818 12.1503C26.0328 12.1503 25.7417 12.1667 25.5796 12.1667V12.0414H25.6588C25.8877 12.0414 26.0034 12.021 26.0034 11.6933V9.47475H25.3222Z" fill="#211E1F"/>
<path d="M26.9599 12.1844C26.7964 12.1844 26.5059 12.1677 26.2828 12.1677C26.034 12.1677 25.7435 12.1844 25.5806 12.1844H25.5633V12.0237H25.6597C25.8886 12.0182 25.9807 12.0153 25.9859 11.6933V9.493H25.3232V9.4564H26.0219V11.6933C26.0219 12.0265 25.8878 12.0602 25.6598 12.0605H25.5987V12.148C25.7625 12.1472 26.0418 12.1322 26.2828 12.1322C26.4993 12.1322 26.7768 12.1472 26.9409 12.148V12.0605H26.8802C26.6795 12.0602 26.518 12.011 26.518 11.6847V9.4564H27.217C27.4957 9.45755 27.532 9.69455 27.5412 9.84861L27.6307 9.8155C27.6307 9.70722 27.6313 9.59866 27.6388 9.48923C27.6509 9.38239 27.6662 9.27642 27.6817 9.17045L27.6183 9.15979C27.5991 9.28074 27.4824 9.28679 27.3779 9.28563H25.2152C25.1176 9.28563 25.0108 9.28103 24.9737 9.165H24.9051C24.9047 9.27773 24.8965 9.3903 24.8806 9.5019C24.8685 9.61596 24.8495 9.72568 24.834 9.83539H24.923C24.9777 9.54596 25.0134 9.45208 25.3231 9.45643V9.493C25.0162 9.49847 25.0226 9.55031 24.9549 9.85728L24.9518 9.87139H24.792L24.7943 9.84979C24.811 9.73345 24.832 9.61766 24.8444 9.49672C24.8617 9.38153 24.8697 9.26634 24.8697 9.14712V9.12898H25.0013L25.0042 9.14194C25.0327 9.24676 25.1095 9.24733 25.2152 9.24906H27.3779C27.4937 9.24733 27.5777 9.24561 27.5849 9.13701L27.5867 9.11743L27.6054 9.12146L27.7226 9.13992L27.7199 9.15806C27.7032 9.26922 27.6869 9.38153 27.6748 9.49297C27.6664 9.60355 27.6664 9.71586 27.6664 9.82788V9.84084L27.6549 9.84545L27.5078 9.89898L27.5067 9.87479C27.4957 9.71871 27.4793 9.49294 27.217 9.49294H26.5542V11.6847C26.558 11.998 26.6823 12.0196 26.8801 12.0236H26.9774V12.1843L26.9599 12.1844ZM27.8349 12.0415H27.8933C28.0425 12.0415 28.2005 12.0214 28.2005 11.8051V9.62918C28.2005 9.4126 28.0425 9.39218 27.8933 9.39218H27.8349V9.26749C28.0876 9.26749 28.5201 9.28391 28.8681 9.28391C29.2177 9.28391 29.6487 9.26749 29.9308 9.26749C29.9239 9.44574 29.9276 9.72047 29.94 9.90278L29.8147 9.93616C29.7949 9.66636 29.7451 9.45067 29.3089 9.45067H28.7323V10.5383H29.2258C29.4747 10.5383 29.5292 10.3975 29.5536 10.1726H29.678C29.67 10.3353 29.6656 10.4972 29.6656 10.659C29.6656 10.8171 29.67 10.9746 29.678 11.1324L29.5536 11.1572C29.5292 10.9081 29.5165 10.7462 29.2298 10.7462H28.7323V11.7135C28.7323 11.9839 28.9721 11.9839 29.2381 11.9839C29.7365 11.9839 29.9561 11.9502 30.0808 11.4774L30.1972 11.5059C30.1427 11.7265 30.0932 11.9462 30.0564 12.1668C29.7903 12.1668 29.3127 12.1504 28.9395 12.1504C28.5653 12.1504 28.0716 12.1668 27.8349 12.1668V12.0415Z" fill="#211E1F"/>
<path d="M30.0558 12.1844C29.7892 12.1844 29.3119 12.1674 28.9391 12.1674C28.5651 12.1674 28.0716 12.1844 27.8347 12.1844H27.8171V12.0238H27.8929C28.0434 12.0215 28.1799 12.0082 28.1819 11.8052V9.62927C28.1799 9.42654 28.0434 9.41301 27.8929 9.40984H27.8171V9.24976H27.8347C28.088 9.24976 28.5199 9.26559 28.868 9.26559C29.2172 9.26559 29.6479 9.24976 29.9306 9.24976H29.9493L29.9484 9.26819C29.9455 9.33068 29.9444 9.40437 29.9444 9.48272C29.9444 9.62639 29.9484 9.78333 29.9568 9.90172L29.9574 9.91669L29.9436 9.92075L29.7976 9.95876L29.7968 9.93745C29.7723 9.66792 29.7363 9.47238 29.3088 9.46835H28.7494L28.7488 10.5197H29.2256C29.4646 10.5174 29.5074 10.395 29.5357 10.1713L29.5371 10.1549H29.6963L29.696 10.1736C29.688 10.3354 29.6828 10.4972 29.6828 10.6591C29.6828 10.8163 29.688 10.9738 29.696 11.1319L29.6963 11.1466L29.6814 11.1501L29.5371 11.1789L29.5357 11.1593C29.5072 10.9059 29.5051 10.7671 29.2293 10.7639L28.7494 10.7636V11.7136C28.7497 11.9659 28.9673 11.9644 29.238 11.9659C29.7377 11.963 29.9381 11.9388 30.0634 11.4723L30.0674 11.4556L30.085 11.4588L30.218 11.493L30.214 11.5103C30.1604 11.7303 30.1106 11.9498 30.0734 12.1697L30.07 12.1844H30.0558ZM30.0406 12.1482C30.0766 11.9388 30.124 11.7286 30.1751 11.5195L30.093 11.4988C29.9686 11.9636 29.7279 12.005 29.2379 12.0019C28.9765 12.0019 28.7145 12.0019 28.7133 11.7136V10.7282H29.2293C29.5192 10.725 29.5489 10.9001 29.5693 11.1365L29.6591 11.1178C29.6512 10.965 29.6472 10.812 29.6473 10.659C29.6473 10.5027 29.651 10.3472 29.6591 10.1908H29.5693C29.5463 10.4071 29.4786 10.5591 29.2256 10.5562H28.7134V9.43201H29.3088C29.7406 9.4291 29.8123 9.65202 29.8307 9.91321L29.9203 9.88902C29.9131 9.77181 29.9081 9.6215 29.9081 9.48269C29.9081 9.41157 29.9099 9.34447 29.9122 9.28572C29.6301 9.28688 29.2097 9.30185 28.868 9.30185C28.5268 9.30185 28.1068 9.28688 27.8526 9.28572V9.37384H27.8928C28.0408 9.37384 28.2176 9.39976 28.2182 9.62927V11.8052C28.2176 12.0341 28.0408 12.0595 27.8928 12.0606H27.8526V12.1482C28.0947 12.1478 28.5744 12.1323 28.9391 12.1323C29.3053 12.1323 29.7728 12.1478 30.0406 12.1482ZM30.7573 9.7076C30.7573 9.40465 30.5915 9.39227 30.4622 9.39227H30.3876V9.26729C30.5206 9.26729 30.7777 9.284 31.0311 9.284C31.2801 9.284 31.4796 9.26729 31.6993 9.26729C32.2221 9.26729 32.6877 9.40869 32.6877 9.99902C32.6877 10.3719 32.4387 10.6006 32.1107 10.7299L32.8204 11.7925C32.9367 11.9682 33.0193 12.0174 33.2232 12.0416V12.1669C33.0861 12.1669 32.9531 12.1504 32.8163 12.1504C32.6877 12.1504 32.5543 12.1669 32.4262 12.1669C32.1066 11.7473 31.832 11.2986 31.5622 10.8206H31.289V11.7098C31.289 12.0301 31.4379 12.0416 31.6287 12.0416H31.7036V12.1669C31.4664 12.1669 31.2266 12.1505 30.9896 12.1505C30.7901 12.1505 30.5949 12.1669 30.3876 12.1669V12.0416H30.4622C30.6165 12.0416 30.7573 11.9719 30.7573 11.8178V9.7076ZM31.289 10.6711H31.4917C31.9071 10.6711 32.1308 10.5134 32.1308 10.0232C32.1308 9.65404 31.8945 9.41704 31.5245 9.41704C31.3999 9.41704 31.3469 9.43 31.289 9.43374V10.6711H31.289Z" fill="#211E1F"/>
<path d="M33.2231 12.1842C33.0841 12.1842 32.9519 12.1675 32.8155 12.1675C32.6888 12.1675 32.5563 12.1842 32.4116 12.1773C32.0931 11.7595 31.8202 11.3134 31.5519 10.8388H31.3066V11.7091C31.3109 12.0216 31.4364 12.019 31.6284 12.0236H31.7214V12.1843H31.703C31.4657 12.1843 31.2248 12.1676 30.989 12.1676C30.7906 12.1676 30.596 12.1843 30.3876 12.1843H30.3694V12.0236H30.4621C30.6118 12.0227 30.7379 11.9576 30.7385 11.8177V9.70747C30.7354 9.41259 30.5911 9.41429 30.4621 9.41H30.3694V9.24902H30.3876C30.522 9.24902 30.7782 9.26541 31.031 9.26541C31.2789 9.26541 31.4784 9.24902 31.6996 9.24902C32.2227 9.25018 32.7046 9.39474 32.706 9.99774C32.706 10.373 32.4582 10.6071 32.1377 10.7378L32.8353 11.7825C32.9513 11.9547 33.0236 11.9977 33.2257 12.0236L33.2409 12.0259V12.1843H33.2231V12.1842ZM31.2885 10.8025H31.5723L31.5772 10.8117C31.8478 11.2889 32.1204 11.737 32.4262 12.1488C32.5529 12.1488 32.6862 12.1318 32.8155 12.1318C32.9482 12.1318 33.076 12.1462 33.2053 12.1482V12.0572C33.0103 12.033 32.9191 11.9748 32.8057 11.8024L32.0833 10.721L32.1037 10.7127C32.4285 10.5848 32.6689 10.3628 32.6692 9.99763C32.6689 9.4214 32.2215 9.28781 31.6996 9.28551C31.4804 9.28551 31.2812 9.30192 31.031 9.30192C30.7872 9.30192 30.541 9.28666 30.4051 9.28551V9.37363H30.4621C30.5911 9.37394 30.7748 9.39523 30.7748 9.70741V11.8176C30.7748 11.9844 30.6184 12.0604 30.4621 12.0607H30.4051V12.1482C30.6049 12.1476 30.7941 12.1318 30.989 12.1318C31.2213 12.1318 31.4554 12.1476 31.6852 12.1482V12.0607H31.6284C31.439 12.0603 31.2703 12.0368 31.2703 11.7091V10.8025H31.2884H31.2885ZM31.2885 10.6885H31.2703V9.41682L31.2861 9.41538C31.3428 9.41109 31.399 9.39926 31.5245 9.39926C31.9028 9.39926 32.1487 9.64518 32.1492 10.0238C32.1481 10.5197 31.9103 10.6882 31.4917 10.6885H31.2885V10.6885ZM31.4917 10.6528C31.9028 10.6493 32.1095 10.5065 32.1138 10.0239C32.1115 9.66102 31.8861 9.43583 31.5245 9.43439C31.4122 9.43439 31.3595 9.44476 31.3065 9.44939V10.6528H31.4917ZM36.042 11.3479L36.0495 11.3399V9.78254C36.0495 9.44159 35.8131 9.39206 35.6888 9.39206H35.5978V9.26734C35.7927 9.26734 35.9833 9.28375 36.1788 9.28375C36.3492 9.28375 36.5188 9.26734 36.6901 9.26734V9.39206H36.6276C36.4532 9.39206 36.2579 9.42514 36.2579 9.91933V11.8096C36.2579 11.9547 36.262 12.0998 36.2824 12.2286H36.125L33.987 9.84448V11.5559C33.987 11.9173 34.0575 12.0414 34.3771 12.0414H34.4476V12.1667C34.2694 12.1667 34.0906 12.1503 33.9124 12.1503C33.7249 12.1503 33.5341 12.1667 33.3475 12.1667V12.0414H33.4051C33.6919 12.0414 33.7791 11.8467 33.7791 11.5147V9.76529C33.7791 9.5329 33.5882 9.39209 33.4017 9.39209H33.3475V9.2674C33.5048 9.2674 33.6674 9.28378 33.8249 9.28378C33.9487 9.28378 34.0696 9.2674 34.1943 9.2674L36.042 11.3479Z" fill="#211E1F"/>
<path d="M36.2824 12.2466L36.1115 12.2409L34.0043 9.89163V11.5558C34.0092 11.9172 34.0639 12.0197 34.3771 12.0238H34.465V12.1844H34.4468C34.2672 12.1844 34.0892 12.1674 33.9113 12.1674C33.7259 12.1674 33.5342 12.1844 33.3473 12.1844H33.3286V12.0238H33.4049C33.679 12.0226 33.7576 11.8461 33.7602 11.5138V9.7655C33.7599 9.54431 33.5788 9.41015 33.4015 9.40983H33.3286V9.24917H33.3473C33.5057 9.24917 33.6681 9.26556 33.8247 9.26556C33.9467 9.26556 34.0671 9.24917 34.2064 9.2549L36.0315 11.3105V9.78247C36.0303 9.45245 35.8092 9.41156 35.6886 9.40986H35.5788V9.24917H35.597C35.7934 9.24917 35.9845 9.26556 36.1785 9.26556C36.3479 9.26556 36.518 9.24917 36.689 9.24917H36.7071V9.40986H36.6274C36.4561 9.41447 36.2796 9.4297 36.2753 9.91957V11.8095C36.2753 11.9546 36.279 12.0986 36.3 12.2265L36.3023 12.2466H36.2824ZM36.1247 12.2103H36.2612C36.243 12.0856 36.239 11.9474 36.239 11.8095V9.91954C36.2393 9.42103 36.4495 9.37499 36.6274 9.37355H36.6708V9.28572C36.5079 9.28687 36.3435 9.30184 36.1785 9.30184C35.988 9.30184 35.8028 9.28687 35.6148 9.28572V9.37355H35.6885C35.8163 9.37499 36.068 9.43085 36.068 9.78247L36.0623 11.3525L36.0542 11.3611L36.0415 11.3744L34.1938 9.28575C34.0705 9.28575 33.9502 9.30187 33.8247 9.30187C33.671 9.30187 33.5158 9.2869 33.3646 9.28575V9.37358H33.4014C33.5964 9.37502 33.7965 9.52217 33.7965 9.7655V11.5137C33.7965 11.8472 33.7026 12.0594 33.4049 12.0606L33.3646 12.0603V12.1481C33.544 12.1473 33.7291 12.1323 33.9114 12.1323C34.0856 12.1323 34.258 12.1473 34.4296 12.1481V12.0606H34.3772C34.0501 12.0603 33.9684 11.9172 33.9678 11.5558V9.79859L36.1247 12.2103ZM36.0418 11.3479L36.0544 11.3361L36.0418 11.3479ZM36.0314 11.3401V11.3386L36.0282 11.3355L36.0314 11.3401ZM37.3576 11.5728C37.3156 11.7136 37.2655 11.8224 37.2655 11.8965C37.2655 12.0214 37.4402 12.0416 37.5767 12.0416H37.623V12.1669C37.4567 12.1579 37.287 12.1504 37.1198 12.1504C36.9704 12.1504 36.8218 12.158 36.6721 12.1669V12.0416H36.6971C36.8589 12.0416 36.9963 11.9462 37.0576 11.7715L37.7226 9.86566C37.7762 9.71188 37.8516 9.50426 37.8767 9.35022C38.0089 9.30501 38.1753 9.22208 38.2539 9.17197C38.2668 9.16768 38.274 9.16333 38.287 9.16333C38.2994 9.16333 38.3074 9.16333 38.3166 9.17629C38.3287 9.20912 38.3408 9.24684 38.3541 9.27996L39.1178 11.4524C39.1676 11.5975 39.2168 11.751 39.2707 11.876C39.3208 11.9923 39.4083 12.0416 39.5457 12.0416H39.5701V12.1669C39.3833 12.1579 39.1962 12.1505 38.9975 12.1505C38.794 12.1505 38.5858 12.158 38.3742 12.1669V12.0416H38.4203C38.5153 12.0416 38.6777 12.0255 38.6777 11.9215C38.6777 11.8677 38.6402 11.7556 38.5939 11.6223L38.4324 11.1405H37.4901L37.3576 11.5728ZM37.9633 9.73265H37.955L37.5689 10.9081H38.3448L37.9633 9.73265Z" fill="#211E1F"/>
<path d="M39.5678 12.1843C39.381 12.1759 39.1941 12.1673 38.9963 12.1673C38.7928 12.1673 38.5861 12.1759 38.3736 12.1843L38.3549 12.1854V12.023H38.4188C38.515 12.023 38.6577 12.0011 38.6577 11.9214C38.6589 11.8741 38.6215 11.7601 38.5757 11.628L38.4176 11.1583H37.5018L37.3728 11.5778C37.3308 11.7195 37.281 11.8292 37.2813 11.8969C37.2827 11.9983 37.4379 12.023 37.5755 12.023H37.6394V12.1854L37.6207 12.1843C37.4546 12.1759 37.285 12.1673 37.1195 12.1673C36.9707 12.1673 36.821 12.1759 36.6721 12.1843L36.6528 12.1854V12.023H36.6957C36.8503 12.0224 36.9793 11.9346 37.0392 11.7656L37.704 9.85953C37.7584 9.70547 37.8332 9.49842 37.8692 9.33284C37.9994 9.28878 38.166 9.20527 38.2461 9.15458C38.2576 9.15084 38.2691 9.14508 38.2861 9.14508C38.2962 9.14479 38.3186 9.14738 38.3319 9.1693C38.3437 9.20354 38.3566 9.24043 38.3693 9.27412L39.134 11.4463C39.183 11.592 39.2325 11.7455 39.2866 11.8682C39.3347 11.979 39.411 12.0225 39.5446 12.0231H39.5869V12.1855L39.5678 12.1843ZM38.3911 12.1471C38.5967 12.1399 38.798 12.1319 38.9963 12.1319C39.1892 12.1319 39.3697 12.1399 39.5502 12.1471V12.0604H39.5445C39.4023 12.0613 39.3041 12.0055 39.2531 11.8831C39.199 11.7569 39.1483 11.6029 39.0997 11.4574L38.3353 9.28558C38.3226 9.25246 38.3105 9.21474 38.2996 9.18537C38.2962 9.18134 38.297 9.18133 38.2936 9.18133H38.286C38.2774 9.18133 38.2725 9.18393 38.2618 9.18681C38.1818 9.23893 38.0152 9.32042 37.8922 9.35296C37.8666 9.5102 37.792 9.71753 37.7379 9.87131L37.0734 11.7777C37.0101 11.9579 36.8647 12.0607 36.6957 12.0604H36.6891V12.1471C36.8313 12.1399 36.9752 12.1319 37.1195 12.1319C37.2798 12.1319 37.4439 12.1399 37.6023 12.1471V12.0604H37.5755C37.4405 12.0587 37.2516 12.0434 37.2464 11.8969C37.2467 11.8139 37.2977 11.7077 37.3382 11.5675L37.3564 11.5729L37.3382 11.5668L37.475 11.1228H38.443L38.6096 11.6164C38.6563 11.7497 38.694 11.8603 38.694 11.9214C38.6882 12.0489 38.5129 12.0579 38.4188 12.0605H38.3911V12.1471H38.3911ZM37.5424 10.9258L37.94 9.71434H37.9625V9.73248L37.9579 9.73334L37.9625 9.73248V9.71434H37.9749L38.369 10.9258H37.5424ZM37.5922 10.8898H38.3189L37.9575 9.77683L37.5922 10.8898ZM37.9443 9.73769L37.9538 9.73452L37.9443 9.73769ZM39.7515 9.47475C39.44 9.47475 39.4276 9.54965 39.3651 9.85256H39.2404C39.2569 9.73651 39.2779 9.62046 39.2909 9.49951C39.3075 9.38317 39.3151 9.26738 39.3151 9.14704H39.4152C39.4483 9.27173 39.5526 9.26741 39.664 9.26741H41.8069C41.9183 9.26741 42.022 9.26338 42.0306 9.13843L42.1299 9.15513C42.114 9.26741 42.0977 9.37946 42.085 9.49174C42.0761 9.60379 42.0761 9.71607 42.0761 9.8278L41.9517 9.87416C41.9439 9.72067 41.9232 9.47475 41.6448 9.47475H40.9639V11.6846C40.9639 12.0049 41.1096 12.0415 41.3083 12.0415H41.3871V12.1667C41.2253 12.1667 40.9351 12.1503 40.7105 12.1503C40.4618 12.1503 40.1707 12.1667 40.0089 12.1667V12.0415H40.0875C40.3164 12.0415 40.4327 12.021 40.4327 11.6933V9.47475H39.7515Z" fill="#211E1F"/>
<path d="M41.3872 12.1843C41.2242 12.1843 40.9335 12.1676 40.7106 12.1676C40.4624 12.1676 40.1716 12.1843 40.009 12.1843H39.9906V12.0237H40.0876C40.3164 12.0182 40.4083 12.0153 40.414 11.6933L40.4135 9.49297H39.7516V9.45637H40.45V11.6933C40.45 12.0265 40.3156 12.0593 40.0876 12.0602H40.0266V12.1489C40.1909 12.1471 40.4696 12.1322 40.7106 12.1322C40.9274 12.1322 41.2049 12.1472 41.369 12.1489V12.0602H41.3077C41.1082 12.0593 40.9464 12.0112 40.9458 11.6847V9.45637H41.6448C41.9235 9.45752 41.9601 9.69452 41.9679 9.84859L42.0586 9.81547C42.0586 9.70719 42.0589 9.59863 42.0669 9.48978C42.0784 9.38294 42.0939 9.27639 42.1092 9.17039L42.0465 9.15974C42.0275 9.28068 41.9103 9.28733 41.807 9.28558H39.643C39.5452 9.28673 39.4392 9.28097 39.4015 9.16434H39.3335C39.3324 9.27953 39.3246 9.39129 39.3082 9.50187C39.2973 9.6162 39.2768 9.7262 39.2613 9.83534H39.3502C39.4052 9.5459 39.4412 9.45202 39.7516 9.45637V9.49294C39.4438 9.49816 39.4507 9.55025 39.3827 9.85723L39.3796 9.87134H39.2195L39.2221 9.85057C39.2393 9.7334 39.2601 9.61761 39.2722 9.49752C39.2892 9.38147 39.2972 9.26628 39.2972 9.14706V9.12892H39.4285L39.432 9.14188C39.461 9.2467 39.5367 9.24728 39.643 9.24901L39.664 9.24958H41.8069C41.9215 9.24731 42.0052 9.24555 42.0124 9.1373L42.0136 9.11743L42.0332 9.12149L42.1509 9.13992L42.1478 9.15806C42.1308 9.26922 42.115 9.38153 42.1023 9.49297C42.0939 9.60355 42.0939 9.71615 42.0939 9.82788V9.84084L42.0822 9.84545L41.935 9.89901L41.9342 9.87479C41.9235 9.71874 41.9071 9.49294 41.6448 9.49294H40.9818V11.6847C40.9861 11.998 41.1102 12.0196 41.3077 12.0236H41.405V12.1843L41.3872 12.1843ZM42.2833 12.0415H42.3415C42.4914 12.0415 42.6483 12.0213 42.6483 11.8051V9.62915C42.6483 9.41257 42.4914 9.39216 42.3415 9.39216H42.2833V9.26746C42.4454 9.26746 42.6942 9.28388 42.8971 9.28388C43.1055 9.28388 43.3546 9.26746 43.5498 9.26746V9.39216H43.4916C43.3422 9.39216 43.1839 9.4126 43.1839 9.62915V11.8051C43.1839 12.0213 43.3422 12.0415 43.4916 12.0415H43.5498V12.1668C43.3503 12.1668 43.1009 12.1504 42.894 12.1504C42.6901 12.1504 42.4454 12.1668 42.2833 12.1668V12.0415Z" fill="#211E1F"/>
<path d="M43.5495 12.1844C43.3488 12.1844 43.1004 12.1674 42.8934 12.1674C42.6904 12.1674 42.4451 12.1844 42.283 12.1844H42.2649V12.0237H42.3412C42.4912 12.0214 42.6288 12.0084 42.6294 11.8051V9.62921C42.6288 9.42648 42.4912 9.41263 42.3412 9.40978H42.2649V9.2497H42.283C42.4451 9.2497 42.6944 9.26554 42.8968 9.26554C43.1038 9.26554 43.3529 9.2497 43.5495 9.2497H43.5671V9.40978H43.4913C43.3396 9.41266 43.2034 9.42648 43.2014 9.62921V11.8051C43.2034 12.0084 43.3396 12.0214 43.4913 12.0237H43.5671V12.1844H43.5495ZM43.5308 12.1481V12.0602H43.4913C43.3425 12.0602 43.1663 12.0341 43.1663 11.8051V9.62921C43.1663 9.3997 43.3425 9.37378 43.4913 9.37378H43.5308V9.28567C43.3391 9.28682 43.0992 9.30179 42.8968 9.30179C42.7002 9.30179 42.4621 9.28682 42.3012 9.28567V9.37378H42.3412C42.4889 9.37378 42.6657 9.3997 42.6662 9.62921V11.8051C42.6657 12.034 42.4889 12.0602 42.3412 12.0602H42.3012V12.1481C42.4613 12.1463 42.6962 12.1322 42.8934 12.1322C43.0946 12.1322 43.335 12.1472 43.5308 12.1481H43.5308ZM45.2051 9.20532C46.0901 9.20532 46.7955 9.75419 46.7955 10.6385C46.7955 11.5941 46.1105 12.229 45.2267 12.229C44.3457 12.229 43.6737 11.6309 43.6737 10.7379C43.6737 9.87427 44.3417 9.20532 45.2051 9.20532ZM45.2678 12.0461C46.0734 12.0461 46.2136 11.3354 46.2136 10.7298C46.2136 10.1228 45.8866 9.38789 45.197 9.38789C44.4704 9.38789 44.2547 10.0358 44.2547 10.5919C44.2547 11.3354 44.595 12.0461 45.2678 12.0461Z" fill="#211E1F"/>
<path d="M43.6555 10.7377C43.6573 9.86403 44.3333 9.18816 45.2053 9.18701V9.22269C44.352 9.22269 43.6915 9.88303 43.6907 10.7377C43.6927 11.6206 44.3552 12.2098 45.227 12.2101C46.1021 12.2098 46.7773 11.5837 46.7787 10.6375C46.7779 9.76439 46.0831 9.22384 45.2054 9.22269V9.18701C46.0973 9.18759 46.8121 9.74193 46.8138 10.6375C46.813 11.603 46.1191 12.2447 45.227 12.2464C44.339 12.2446 43.6573 11.6405 43.6556 10.7377H43.6555V10.7377ZM44.2371 10.5917C44.2383 10.0331 44.4565 9.36901 45.1976 9.36901C45.9023 9.37076 46.2314 10.1195 46.2325 10.7297C46.2314 11.3353 46.0889 12.0633 45.2684 12.0633V12.0281C46.0578 12.027 46.1946 11.3353 46.1965 10.7297C46.1965 10.1275 45.8724 9.40676 45.1976 9.40587C44.4853 9.40673 44.2745 10.0385 44.2731 10.5917C44.2737 11.3315 44.6108 12.0264 45.2684 12.0281V12.0633C44.5791 12.0624 44.2383 11.3396 44.2371 10.5917ZM49.5937 11.3479L49.6021 11.3399V9.78253C49.6021 9.44158 49.3648 9.39205 49.2402 9.39205H49.1503V9.26733C49.3449 9.26733 49.5359 9.28374 49.7304 9.28374C49.9012 9.28374 50.0713 9.26733 50.2418 9.26733V9.39205H50.179C50.0051 9.39205 49.8096 9.42513 49.8096 9.91932V11.8095C49.8096 11.9547 49.8137 12.0998 49.8347 12.2286H49.6772L47.5386 9.84447V11.5559C47.5386 11.9173 47.6089 12.0414 47.9285 12.0414H47.9995V12.1667C47.8208 12.1667 47.6426 12.1502 47.464 12.1502C47.2772 12.1502 47.0858 12.1667 46.8989 12.1667V12.0414H46.9573C47.2444 12.0414 47.3305 11.8467 47.3305 11.5147V9.76528C47.3305 9.53289 47.1404 9.39207 46.953 9.39207H46.8989V9.26738C47.0567 9.26738 47.2188 9.28377 47.3763 9.28377C47.5009 9.28377 47.621 9.26738 47.7459 9.26738L49.5937 11.3479Z" fill="#211E1F"/>
<path d="M49.8343 12.2466L49.6624 12.2405L47.5558 9.8916V11.5561C47.5604 11.9172 47.6154 12.0194 47.9272 12.0232H48.017V12.1844H47.9989C47.8189 12.1844 47.6407 12.1677 47.4634 12.1677C47.2771 12.1677 47.0865 12.1844 46.8979 12.1844H46.8806V12.0232H46.9566C47.2304 12.0223 47.309 11.8461 47.3125 11.5149V9.7655C47.3119 9.54434 47.1308 9.41015 46.9523 9.40986H46.8806V9.24975H46.8979C47.0571 9.24975 47.2189 9.26562 47.3755 9.26562C47.4988 9.26562 47.6185 9.24975 47.759 9.25582L49.5832 11.3105V9.78309C49.582 9.45253 49.3609 9.41277 49.2394 9.40989H49.1303V9.24981H49.149C49.3445 9.24981 49.5359 9.26564 49.7291 9.26564C49.8995 9.26564 50.0688 9.24981 50.241 9.24981H50.2588V9.40989H50.1782C50.0075 9.41478 49.8307 9.43033 49.8273 9.91959V11.8095C49.8273 11.9547 49.8304 12.0995 49.8506 12.2265L49.854 12.2466H49.8343V12.2466ZM49.6765 12.2103H49.8124C49.7943 12.0856 49.7911 11.9474 49.7911 11.8095V9.91953C49.7911 9.4202 50.0004 9.37499 50.1784 9.37355H50.2232V9.28572C50.0595 9.28687 49.8954 9.30184 49.7293 9.30184C49.5404 9.30184 49.3546 9.28687 49.1667 9.28572V9.37355H49.2395C49.3682 9.37499 49.6187 9.43174 49.6187 9.78304L49.6141 11.3525L49.6063 11.3611L49.5931 11.3743L47.7453 9.28574C47.623 9.28574 47.5017 9.30187 47.3757 9.30187C47.2228 9.30187 47.067 9.2869 46.9159 9.28574V9.37357H46.9524C47.1474 9.37501 47.348 9.52217 47.348 9.7655V11.5149C47.348 11.8469 47.2553 12.0594 46.9567 12.0606L46.9159 12.0603V12.1481C47.0961 12.1473 47.2809 12.1323 47.4634 12.1323C47.6365 12.1323 47.8084 12.1473 47.9808 12.1481V12.0606H47.9273C47.6014 12.0603 47.5199 11.9172 47.5199 11.556V9.79801L49.6765 12.2103ZM49.593 11.3478L49.6062 11.336L49.593 11.3478ZM49.5832 11.3401V11.3386L49.5798 11.3355L49.5832 11.3401ZM50.9082 11.5728C50.8676 11.7136 50.8172 11.8224 50.8172 11.8964C50.8172 12.0214 50.992 12.0416 51.1282 12.0416H51.1745V12.1668C51.0084 12.1579 50.838 12.1504 50.6719 12.1504C50.5219 12.1504 50.373 12.1579 50.2242 12.1668V12.0416H50.2478C50.4104 12.0416 50.5481 11.9462 50.6094 11.7714L51.2745 9.86565C51.328 9.71188 51.4031 9.50425 51.4274 9.35022C51.5603 9.30501 51.7262 9.22208 51.8059 9.17197C51.8177 9.16768 51.8261 9.16333 51.8387 9.16333C51.8511 9.16333 51.8589 9.16333 51.8673 9.17629C51.8799 9.20912 51.8929 9.24684 51.9053 9.27996L52.6688 11.4524C52.7186 11.5975 52.7681 11.751 52.8228 11.876C52.8726 11.9923 52.9601 12.0416 53.0966 12.0416H53.122V12.1668C52.9348 12.1579 52.748 12.1504 52.5485 12.1504C52.3455 12.1504 52.1376 12.1579 51.9257 12.1668V12.0416H51.9718C52.0665 12.0416 52.2295 12.0254 52.2295 11.9215C52.2295 11.8676 52.1917 11.7556 52.1454 11.6223L51.9842 11.1405H51.0416L50.9082 11.5728ZM51.5151 9.73264H51.5068L51.1201 10.9081H51.8971L51.5151 9.73264Z" fill="#211E1F"/>
<path d="M53.1205 12.1844C52.9336 12.1769 52.7471 12.1677 52.5487 12.1677C52.3463 12.1677 52.1385 12.1769 51.9265 12.1844L51.9081 12.1855V12.0237H51.9712C52.0679 12.0237 52.211 12.0012 52.2113 11.9214C52.2121 11.8742 52.1747 11.761 52.1284 11.628L51.9706 11.1583H51.0542L50.9258 11.5779C50.8844 11.7201 50.8348 11.8293 50.8357 11.8964C50.8357 11.9983 50.9911 12.0237 51.1285 12.0237H51.1918V12.1855L51.1734 12.1844C51.0073 12.1769 50.8374 12.1677 50.6722 12.1677C50.5233 12.1677 50.3741 12.1769 50.2245 12.1844L50.2063 12.1855V12.0237H50.2481C50.4029 12.0231 50.5325 11.9341 50.593 11.7657L51.2575 9.85959C51.3104 9.70553 51.3853 9.49848 51.4221 9.33347C51.5526 9.28826 51.7192 9.20533 51.7999 9.15462C51.8108 9.15087 51.822 9.14598 51.839 9.14598C51.85 9.14482 51.8712 9.14742 51.8845 9.17017C51.8969 9.20274 51.909 9.24043 51.9228 9.27412L52.6863 11.4463C52.7358 11.592 52.7856 11.7455 52.8395 11.869C52.8881 11.979 52.9638 12.0225 53.0963 12.0237H53.1394V12.1855L53.1205 12.1844ZM51.9438 12.1478C52.1491 12.14 52.3512 12.1319 52.5487 12.1319C52.7419 12.1319 52.923 12.14 53.1038 12.1472L53.1032 12.0605H53.0963C52.9558 12.0608 52.8577 12.0055 52.8061 11.8831C52.7514 11.757 52.7019 11.6029 52.6523 11.458L51.8882 9.28564C51.8758 9.25253 51.8632 9.2148 51.8531 9.18658C51.8496 9.1814 51.85 9.1814 51.8468 9.1814H51.839C51.8304 9.1814 51.8257 9.18428 51.8156 9.18716C51.7348 9.23813 51.5683 9.32103 51.4454 9.35303C51.4198 9.51026 51.3444 9.71731 51.2909 9.87137L50.6261 11.7777C50.563 11.958 50.4179 12.0608 50.248 12.0605H50.242V12.1472C50.3848 12.14 50.5276 12.1319 50.6721 12.1319C50.8331 12.1319 50.9969 12.14 51.1567 12.1472V12.0605H51.1285C50.9935 12.0588 50.804 12.0441 50.7991 11.8964C50.8 11.814 50.8515 11.7083 50.8915 11.5675L50.9085 11.5729L50.8915 11.5669L51.0283 11.1229H51.9965L52.1629 11.6164C52.2087 11.7501 52.2464 11.8604 52.2464 11.9214C52.2403 12.049 52.0661 12.0579 51.9711 12.0605H51.9438V12.1478H51.9438ZM51.0957 10.9257L51.4938 9.71443H51.5154V9.73257L51.5111 9.73343L51.5154 9.73257V9.71443H51.5284L51.9208 10.9257H51.0957ZM51.1455 10.8899H51.8716L51.5105 9.77749L51.1455 10.8899ZM51.4981 9.73778L51.5065 9.73461L51.4981 9.73778ZM54.1684 11.7596C54.1684 11.9258 54.2835 11.9753 54.4166 11.9923C54.5867 12.0049 54.7736 12.0049 54.9654 11.9839C55.1392 11.9629 55.289 11.8633 55.3632 11.7596C55.4294 11.668 55.4669 11.5517 55.4919 11.4604H55.6122C55.5668 11.6971 55.5086 11.9303 55.4585 12.1668C55.094 12.1668 54.7278 12.1504 54.363 12.1504C53.9971 12.1504 53.6323 12.1668 53.267 12.1668V12.0415H53.324C53.4743 12.0415 53.6367 12.0213 53.6367 11.7636V9.62919C53.6367 9.41261 53.4743 9.39219 53.324 9.39219H53.267V9.2675C53.4864 9.2675 53.7026 9.28391 53.9223 9.28391C54.1347 9.28391 54.342 9.2675 54.5539 9.2675V9.39219H54.4494C54.2922 9.39219 54.1684 9.3968 54.1684 9.61623V11.7596Z" fill="#211E1F"/>
<path d="M55.4604 12.1843C55.0945 12.1843 54.7292 12.1676 54.365 12.1676C53.9993 12.1676 53.634 12.1843 53.2681 12.1843H53.2505V12.0237H53.326C53.4765 12.0202 53.6187 12.0098 53.6205 11.7636V9.62836C53.6187 9.4265 53.4774 9.41267 53.326 9.40977H53.2505V9.24968H53.2681C53.4889 9.24968 53.7051 9.26552 53.9245 9.26552C54.1352 9.26552 54.3425 9.24968 54.5558 9.24968H54.5729V9.40977H54.4516C54.2907 9.41437 54.1905 9.40689 54.1874 9.61627V11.7596C54.1885 11.9143 54.2899 11.956 54.4194 11.9742C54.4928 11.9793 54.5697 11.9825 54.6498 11.9825C54.7514 11.9825 54.857 11.9776 54.9641 11.9661C55.1334 11.9463 55.2791 11.8486 55.3505 11.7495C55.4144 11.6608 55.4513 11.5468 55.476 11.4561L55.4798 11.4423H55.6361L55.6323 11.4642C55.5854 11.7018 55.5284 11.9339 55.4781 12.1703L55.4746 12.1844H55.4604V12.1843ZM55.4455 12.1481C55.4935 11.9229 55.548 11.7025 55.5926 11.4779H55.5074C55.4814 11.5684 55.4446 11.6798 55.3793 11.7705C55.3018 11.8782 55.1481 11.9796 54.9681 12.0017C54.8593 12.013 54.7516 12.0187 54.6497 12.0187C54.5694 12.0187 54.4914 12.015 54.4162 12.0098C54.2812 11.9948 54.1502 11.9372 54.1508 11.7596V9.61621C54.1508 9.38555 54.2967 9.37374 54.4516 9.37374H54.5374V9.28562C54.3327 9.28678 54.1312 9.30201 53.9244 9.30201C53.7094 9.30201 53.4992 9.28678 53.2862 9.28562V9.37374H53.3259C53.4742 9.37374 53.6555 9.39966 53.6555 9.62831V11.7636C53.6555 12.0323 53.475 12.0602 53.3259 12.0602H53.2862V12.148C53.6452 12.1477 54.0042 12.1322 54.365 12.1322C54.7257 12.1322 55.0862 12.1477 55.4455 12.1481ZM55.5638 9.14941C55.8139 9.14941 56.0008 9.34178 56.0008 9.58828C56.0008 9.83363 55.814 10.0243 55.5638 10.0243C55.3136 10.0243 55.1264 9.83363 55.1264 9.58828C55.1264 9.34181 55.3135 9.14941 55.5638 9.14941ZM55.5638 9.94277C55.7592 9.94277 55.9096 9.77575 55.9096 9.58828C55.9096 9.39966 55.7615 9.2312 55.5638 9.2312C55.3672 9.2312 55.2168 9.39969 55.2168 9.58828C55.2168 9.77575 55.3672 9.94277 55.5638 9.94277ZM55.3461 9.81865V9.79706C55.3999 9.78957 55.4097 9.7913 55.4097 9.75789V9.43421C55.4097 9.38874 55.4048 9.37319 55.3481 9.37547V9.3533H55.5718C55.649 9.3533 55.7195 9.38987 55.7195 9.46935C55.7195 9.53443 55.6763 9.58252 55.6161 9.60124L55.6878 9.70142C55.7215 9.74692 55.7592 9.78957 55.7843 9.80451V9.81863H55.6991C55.6582 9.81863 55.6225 9.73252 55.5418 9.61705H55.4935V9.76247C55.4935 9.79127 55.5036 9.78954 55.5574 9.79703V9.81863H55.3461V9.81865ZM55.4935 9.58828H55.545C55.6014 9.58828 55.6279 9.54537 55.6279 9.47655C55.6279 9.40686 55.587 9.38235 55.5422 9.38235H55.4935V9.58828Z" fill="#211E1F"/>
<path d="M10.7299 14.5136C14.6957 14.5326 18.3155 11.2786 18.3155 7.31988C18.3155 2.99084 14.6957 -0.00143932 10.7299 5.19397e-07H7.31677C3.3034 -0.00143932 0 2.99174 0 7.31988C0 11.2794 3.3034 14.5326 7.31677 14.5136H10.7299Z" fill="#0079BE"/>
<path d="M7.33449 0.599854C3.66718 0.601005 0.695444 3.57428 0.69458 7.24389C0.695444 10.9129 3.66715 13.8859 7.33449 13.887C11.0027 13.8859 13.975 10.9129 13.9755 7.24389C13.975 3.57428 11.0027 0.601005 7.33449 0.599854ZM3.12564 7.24389C3.12909 5.45071 4.24875 3.9216 5.82761 3.31396V11.1729C4.24875 10.5656 3.12906 9.03733 3.12564 7.24389ZM8.8408 11.1746V3.3137C10.4202 3.91987 11.5416 5.44985 11.5445 7.24389C11.5416 9.03849 10.4202 10.5673 8.8408 11.1746Z" fill="white"/>
<path d="M20.6439 3.12254C20.6439 2.43599 20.286 2.48121 19.9428 2.47375V2.27534C20.2402 2.29002 20.5451 2.29002 20.8431 2.29002C21.1635 2.29002 21.5986 2.27534 22.1634 2.27534C24.139 2.27534 25.2149 3.59538 25.2149 4.94708C25.2149 5.703 24.7727 7.6033 22.0716 7.6033C21.6826 7.6033 21.3236 7.5883 20.9651 7.5883C20.622 7.5883 20.286 7.59582 19.9428 7.6033V7.40518C20.4003 7.35908 20.622 7.34384 20.6438 6.82464V3.12254H20.6439ZM21.3918 6.70283C21.3918 7.29057 21.8119 7.35911 22.1856 7.35911C23.8341 7.35911 24.3754 6.11479 24.3754 4.97732C24.3754 3.55043 23.4596 2.52008 21.9873 2.52008C21.674 2.52008 21.5301 2.54254 21.3919 2.55063L21.3918 6.70283ZM25.4826 7.40521H25.6272C25.8405 7.40521 25.9934 7.40521 25.9934 7.15263V5.08447C25.9934 4.74902 25.8791 4.70234 25.5967 4.55058V4.42819C25.9551 4.32049 26.383 4.17651 26.4129 4.15347C26.4667 4.12294 26.5122 4.11488 26.5505 4.11488C26.5882 4.11488 26.604 4.16096 26.604 4.22229V7.15263C26.604 7.40521 26.7719 7.40521 26.9855 7.40521H27.1151V7.60362C26.8553 7.60362 26.5882 7.58839 26.3141 7.58839C26.0395 7.58839 25.7645 7.59587 25.4827 7.60362V7.40521H25.4826ZM26.2988 2.93965C26.1002 2.93965 25.9252 2.75653 25.9252 2.55809C25.9252 2.36688 26.1083 2.19093 26.2988 2.19093C26.4966 2.19093 26.6728 2.35194 26.6728 2.55809C26.6728 2.76428 26.5044 2.93965 26.2988 2.93965ZM27.8399 5.12997C27.8399 4.84776 27.7556 4.77174 27.3977 4.6266V4.48178C27.7256 4.37494 28.038 4.2756 28.4045 4.11491C28.4273 4.11491 28.4497 4.13046 28.4497 4.19122V4.68765C28.8853 4.37495 29.2593 4.11488 29.7712 4.11488C30.4189 4.11488 30.6478 4.58827 30.6478 5.1835V7.15266C30.6478 7.40521 30.8156 7.40521 31.0296 7.40521H31.1669V7.60362C30.8991 7.60362 30.6323 7.58839 30.3582 7.58839C30.0832 7.58839 29.8082 7.59587 29.5339 7.60362V7.40521H29.6709C29.8851 7.40521 30.0369 7.40521 30.0369 7.15266V5.1763C30.0369 4.74061 29.7712 4.52722 29.3355 4.52722C29.0917 4.52722 28.7024 4.72566 28.4497 4.89381V7.1526C28.4497 7.40518 28.6183 7.40518 28.8323 7.40518H28.9694V7.60359C28.7024 7.60359 28.435 7.58833 28.1603 7.58833C27.8859 7.58833 27.6107 7.59585 27.3363 7.60359V7.40518H27.474C27.6876 7.40518 27.8399 7.40518 27.8399 7.1526V5.12997H27.8399ZM31.747 5.49681C31.7312 5.56567 31.7312 5.67996 31.747 5.93971C31.792 6.66453 32.2586 7.25979 32.8681 7.25979C33.2881 7.25979 33.6169 7.03085 33.8988 6.74864L34.0053 6.85577C33.6541 7.32112 33.2193 7.71792 32.594 7.71792C31.3805 7.71792 31.1363 6.54214 31.1363 6.05406C31.1363 4.55775 32.1434 4.11485 32.6772 4.11485C33.2956 4.11485 33.9598 4.50393 33.967 5.31309C33.967 5.35945 33.967 5.40466 33.9598 5.45103L33.8907 5.49681H31.747ZM33.0979 5.25236C33.2882 5.25236 33.3107 5.15301 33.3107 5.06172C33.3107 4.67236 33.0743 4.35934 32.6467 4.35934C32.1818 4.35934 31.8613 4.70231 31.7698 5.25236H33.0979ZM34.1427 7.40521H34.3488C34.5618 7.40521 34.7145 7.40521 34.7145 7.15263V5.00813C34.7145 4.77171 34.4326 4.72563 34.3177 4.66458V4.55055C34.8748 4.31355 35.1803 4.11485 35.2497 4.11485C35.2949 4.11485 35.3173 4.13789 35.3173 4.21449V4.90129H35.3335C35.5237 4.60382 35.8448 4.11485 36.3097 4.11485C36.5006 4.11485 36.7445 4.24444 36.7445 4.51945C36.7445 4.72563 36.6 4.90936 36.3864 4.90936C36.1488 4.90936 36.1488 4.72563 35.8822 4.72563C35.7524 4.72563 35.3254 4.90129 35.3254 5.35945V7.15263C35.3254 7.40518 35.4777 7.40518 35.6916 7.40518H36.1186V7.60362C35.6988 7.59582 35.3795 7.58836 35.0507 7.58836C34.7381 7.58836 34.4174 7.59585 34.1427 7.60362V7.40521H34.1427ZM37.0804 6.54214C37.1798 7.04608 37.4847 7.47375 38.042 7.47375C38.4912 7.47375 38.6593 7.19903 38.6593 6.93179C38.6593 6.03102 36.9963 6.32101 36.9963 5.09225C36.9963 4.66461 37.3401 4.11488 38.179 4.11488C38.4229 4.11488 38.7508 4.18399 39.0482 4.3369L39.1023 5.11474H38.9265C38.8504 4.63438 38.5836 4.35939 38.0947 4.35939C37.7895 4.35939 37.4999 4.53508 37.4999 4.86305C37.4999 5.75691 39.2699 5.48132 39.2699 6.67956C39.2699 7.18322 38.8654 7.71797 37.9574 7.71797C37.6522 7.71797 37.2937 7.61114 37.0269 7.4588L36.9428 6.58081L37.0804 6.54214ZM46.1598 3.65698H45.9694C45.8243 2.76428 45.191 2.40518 44.3368 2.40518C43.4587 2.40518 42.1844 2.99261 42.1844 4.82441C42.1844 6.36734 43.2839 7.47369 44.4585 7.47369C45.2137 7.47369 45.8399 6.95477 45.9925 6.15309L46.1675 6.19859L45.9925 7.313C45.672 7.51199 44.8097 7.71792 44.3056 7.71792C42.5206 7.71792 41.3917 6.56521 41.3917 4.84773C41.3917 3.28291 42.7878 2.16041 44.2831 2.16041C44.901 2.16041 45.4961 2.35968 46.0837 2.56587L46.1598 3.65698ZM46.435 7.40521H46.5795C46.7935 7.40521 46.9466 7.40521 46.9466 7.15263V2.90167C46.9466 2.40521 46.832 2.38992 46.5418 2.30612V2.18402C46.847 2.08499 47.1674 1.94731 47.3278 1.85548C47.411 1.80998 47.4726 1.77136 47.495 1.77136C47.5417 1.77136 47.5569 1.81747 47.5569 1.87877V7.15263C47.5569 7.40521 47.7245 7.40521 47.9384 7.40521H48.0671V7.60362C47.8089 7.60362 47.5417 7.58836 47.2667 7.58836C46.9924 7.58836 46.7177 7.59587 46.435 7.60362V7.40521H46.435ZM51.3341 7.18319C51.3341 7.32112 51.4176 7.32861 51.5472 7.32861C51.639 7.32861 51.753 7.32112 51.8526 7.32112V7.48181C51.5242 7.51205 50.8985 7.67245 50.7534 7.71794L50.7151 7.69488V7.07721C50.258 7.45097 49.9064 7.71794 49.3643 7.71794C48.9523 7.71794 48.5251 7.45097 48.5251 6.81024V4.85551C48.5251 4.6571 48.4948 4.46614 48.0682 4.42816V4.28303C48.3432 4.27554 48.9524 4.22972 49.0519 4.22972C49.1366 4.22972 49.1366 4.28303 49.1366 4.45091V6.41972C49.1366 6.64926 49.1366 7.30552 49.7999 7.30552C50.0593 7.30552 50.4025 7.10711 50.7227 6.84073V4.78637C50.7227 4.63432 50.3567 4.55052 50.0827 4.47389V4.33653C50.7684 4.29045 51.1965 4.22969 51.2723 4.22969C51.3341 4.22969 51.3341 4.28297 51.3341 4.36734V7.18319H51.3341ZM52.8524 4.66461C53.1573 4.40512 53.5692 4.11488 53.9892 4.11488C54.8745 4.11488 55.4081 4.88664 55.4081 5.71797C55.4081 6.71783 54.6759 7.71792 53.5841 7.71792C53.0198 7.71792 52.7224 7.53448 52.5238 7.45094L52.2952 7.62603L52.1355 7.54254C52.2031 7.09216 52.242 6.64926 52.242 6.18391V2.90164C52.242 2.40521 52.1268 2.38992 51.8371 2.30612V2.18402C52.1432 2.08499 52.4627 1.94731 52.6231 1.85545C52.7072 1.80995 52.7679 1.77136 52.7916 1.77136C52.837 1.77136 52.8523 1.81747 52.8523 1.87877V4.66458H52.8524V4.66461ZM52.8524 6.74058C52.8524 7.03085 53.1267 7.51982 53.638 7.51982C54.4545 7.51982 54.7977 6.71783 54.7977 6.03825C54.7977 5.21409 54.1727 4.52728 53.5773 4.52728C53.2943 4.52728 53.0582 4.71072 52.8523 4.88664V6.74058H52.8524ZM19.9341 12.0415H19.9925C20.1417 12.0415 20.2994 12.0213 20.2994 11.8051V9.62916C20.2994 9.41258 20.1417 9.39217 19.9925 9.39217H19.9341V9.26748C20.0962 9.26748 20.3452 9.28389 20.5493 9.28389C20.7566 9.28389 21.0054 9.26748 21.2006 9.26748V9.39217H21.1421C20.9933 9.39217 20.8352 9.41261 20.8352 9.62916V11.8051C20.8352 12.0213 20.9933 12.0415 21.1421 12.0415H21.2006V12.1668C21.0013 12.1668 20.7517 12.1504 20.5447 12.1504C20.3412 12.1504 20.0962 12.1668 19.9341 12.1668V12.0415Z" fill="white"/>
<path d="M21.2003 12.1843C20.9997 12.1843 20.7509 12.1676 20.5442 12.1676C20.3412 12.1676 20.0971 12.1843 19.9338 12.1843H19.916V12.0236H19.992C20.1426 12.0202 20.2796 12.0081 20.2811 11.8051V9.62914C20.2796 9.42612 20.1426 9.41256 19.992 9.40971H19.916V9.24902H19.9338C20.0971 9.24902 20.3459 9.26544 20.5488 9.26544C20.7555 9.26544 21.004 9.24902 21.2003 9.24902H21.2188V9.40971H21.1422C20.9916 9.41259 20.8537 9.42612 20.8528 9.62914V11.8051C20.8537 12.0081 20.9916 12.0202 21.1422 12.0236H21.2187V12.1843H21.2003ZM21.1825 12.1489V12.0602H21.1422C20.9939 12.0602 20.8174 12.0345 20.8165 11.8051V9.62914C20.8174 9.39963 20.9939 9.37371 21.1422 9.37371H21.1825V9.2856C20.9907 9.2856 20.7503 9.30172 20.5488 9.30172C20.3516 9.30172 20.1129 9.28675 19.9523 9.2856V9.37371H19.992C20.14 9.37371 20.317 9.39963 20.317 9.62914V11.8051C20.317 12.0346 20.14 12.0602 19.992 12.0602H19.9523V12.1489C20.1129 12.1471 20.3475 12.1322 20.5442 12.1322C20.7463 12.1322 20.9867 12.1477 21.1825 12.1489ZM24.0526 11.348L24.0609 11.34V9.78263C24.0609 9.44167 23.824 9.39214 23.6996 9.39214H23.608V9.26742C23.8035 9.26742 23.9944 9.28384 24.1893 9.28384C24.3594 9.28384 24.5305 9.26742 24.7003 9.26742V9.39214H24.6381C24.4634 9.39214 24.2682 9.42523 24.2682 9.91941V11.8096C24.2682 11.9548 24.2725 12.0999 24.2929 12.2287H24.1349L21.9972 9.84457V11.556C21.9972 11.9174 22.0672 12.0415 22.3873 12.0415H22.4575V12.1667C22.2794 12.1667 22.1011 12.1503 21.9223 12.1503C21.736 12.1503 21.5449 12.1667 21.3578 12.1667V12.0415H21.4159C21.7024 12.0415 21.7894 11.8468 21.7894 11.5148V9.76538C21.7894 9.53299 21.5979 9.39217 21.4119 9.39217H21.3578V9.26748C21.5155 9.26748 21.6774 9.28387 21.8349 9.28387C21.9595 9.28387 22.0802 9.26748 22.2045 9.26748L24.0526 11.348Z" fill="white"/>
<path d="M24.2933 12.2468L24.122 12.2404L22.0151 9.89147V11.5559C22.02 11.917 22.075 12.0196 22.3876 12.0236H22.4766V12.1843H22.4582C22.2785 12.1843 22.0997 12.1676 21.9226 12.1676C21.7366 12.1676 21.5461 12.1843 21.3578 12.1843H21.3396V12.0236H21.4162C21.6906 12.0222 21.7689 11.8459 21.7721 11.5148V9.76563C21.7715 9.54446 21.5901 9.41027 21.4122 9.40969H21.3396V9.24958H21.3577C21.5164 9.24958 21.679 9.26542 21.8348 9.26542C21.9583 9.26542 22.0787 9.24958 22.2186 9.25563L24.0433 11.3103V9.78293C24.041 9.45234 23.8208 9.4126 23.6998 9.40969H23.5898V9.24958H23.6083C23.8044 9.24958 23.9955 9.26542 24.1895 9.26542C24.3585 9.26542 24.5287 9.24958 24.7003 9.24958H24.7184V9.40967H24.6384C24.4671 9.41459 24.2912 9.42954 24.2863 9.91937V11.8093C24.2863 11.9545 24.2906 12.0996 24.3108 12.2254L24.3148 12.2467H24.2933V12.2468ZM24.1355 12.2102H24.2728C24.2542 12.0855 24.251 11.9473 24.251 11.8093V9.91937C24.251 9.4209 24.4597 9.3737 24.6385 9.3737H24.6822V9.28555C24.5187 9.2867 24.3546 9.30168 24.1897 9.30168C23.9996 9.30168 23.8148 9.2867 23.6268 9.28555L23.6265 9.3737H23.6999C23.8275 9.3737 24.0794 9.43069 24.0794 9.7829L24.0736 11.3523L24.0653 11.361L24.0512 11.3739L22.2049 9.28555C22.0817 9.28555 21.9613 9.30168 21.8349 9.30168C21.6826 9.30168 21.5269 9.2867 21.3763 9.28555L21.3754 9.37367H21.4123C21.6072 9.37367 21.8073 9.52255 21.8073 9.7656V11.5147C21.8073 11.8467 21.7149 12.0592 21.4163 12.0604L21.3763 12.0592V12.1488C21.5562 12.1471 21.7411 12.1321 21.9227 12.1321C22.096 12.1321 22.2685 12.1471 22.44 12.1488V12.0604H22.3877C22.0609 12.0592 21.9797 11.917 21.9794 11.5559V9.79782L24.1355 12.2102ZM24.0529 11.3477L24.0661 11.3356L24.0529 11.3477ZM24.0434 11.3397V11.3382L24.0399 11.3353L24.0434 11.3397ZM25.3222 9.47475C25.0104 9.47475 24.9986 9.54965 24.9365 9.85256H24.8118C24.8282 9.73651 24.8489 9.62046 24.8616 9.49951C24.8783 9.38317 24.8863 9.26738 24.8863 9.14704H24.9862C25.0196 9.27173 25.1233 9.26741 25.2359 9.26741H27.3776C27.4898 9.26741 27.5935 9.26338 27.6021 9.13843L27.7012 9.15513C27.685 9.26741 27.6683 9.37946 27.6557 9.49174C27.6482 9.60379 27.6482 9.71607 27.6482 9.8278L27.5232 9.87416C27.5146 9.72067 27.4939 9.47475 27.216 9.47475H26.5352V11.6846C26.5352 12.0048 26.6806 12.0414 26.8792 12.0414H26.9584V12.1667C26.7966 12.1667 26.5055 12.1503 26.2818 12.1503C26.0328 12.1503 25.7417 12.1667 25.5796 12.1667V12.0414H25.6588C25.8877 12.0414 26.0034 12.021 26.0034 11.6933V9.47475H25.3222Z" fill="white"/>
<path d="M26.9599 12.1844C26.7964 12.1844 26.5059 12.1677 26.2828 12.1677C26.034 12.1677 25.7435 12.1844 25.5806 12.1844H25.5633V12.0237H25.6597C25.8886 12.0182 25.9807 12.0153 25.9859 11.6933V9.493H25.3232V9.4564H26.0219V11.6933C26.0219 12.0265 25.8878 12.0602 25.6598 12.0605H25.5987V12.148C25.7625 12.1472 26.0418 12.1322 26.2828 12.1322C26.4993 12.1322 26.7768 12.1472 26.9409 12.148V12.0605H26.8802C26.6795 12.0602 26.518 12.011 26.518 11.6847V9.4564H27.217C27.4957 9.45755 27.532 9.69455 27.5412 9.84861L27.6307 9.8155C27.6307 9.70722 27.6313 9.59866 27.6388 9.48923C27.6509 9.38239 27.6662 9.27642 27.6817 9.17045L27.6183 9.15979C27.5991 9.28074 27.4824 9.28679 27.3779 9.28563H25.2152C25.1176 9.28563 25.0108 9.28103 24.9737 9.165H24.9051C24.9047 9.27773 24.8965 9.3903 24.8806 9.5019C24.8685 9.61596 24.8495 9.72568 24.834 9.83539H24.923C24.9777 9.54596 25.0134 9.45208 25.3231 9.45643V9.493C25.0162 9.49847 25.0226 9.55031 24.9549 9.85728L24.9518 9.87139H24.792L24.7943 9.84979C24.811 9.73345 24.832 9.61766 24.8444 9.49672C24.8617 9.38153 24.8697 9.26634 24.8697 9.14712V9.12898H25.0013L25.0042 9.14194C25.0327 9.24676 25.1095 9.24733 25.2152 9.24906H27.3779C27.4937 9.24733 27.5777 9.24561 27.5849 9.13701L27.5867 9.11743L27.6054 9.12146L27.7226 9.13992L27.7199 9.15806C27.7032 9.26922 27.6869 9.38153 27.6748 9.49297C27.6664 9.60355 27.6664 9.71586 27.6664 9.82788V9.84084L27.6549 9.84545L27.5078 9.89898L27.5067 9.87479C27.4957 9.71871 27.4793 9.49294 27.217 9.49294H26.5542V11.6847C26.558 11.998 26.6823 12.0196 26.8801 12.0236H26.9774V12.1843L26.9599 12.1844ZM27.8349 12.0415H27.8933C28.0425 12.0415 28.2005 12.0214 28.2005 11.8051V9.62918C28.2005 9.4126 28.0425 9.39218 27.8933 9.39218H27.8349V9.26749C28.0876 9.26749 28.5201 9.28391 28.8681 9.28391C29.2177 9.28391 29.6487 9.26749 29.9308 9.26749C29.9239 9.44574 29.9276 9.72047 29.94 9.90278L29.8147 9.93616C29.7949 9.66636 29.7451 9.45067 29.3089 9.45067H28.7323V10.5383H29.2258C29.4747 10.5383 29.5292 10.3975 29.5536 10.1726H29.678C29.67 10.3353 29.6656 10.4972 29.6656 10.659C29.6656 10.8171 29.67 10.9746 29.678 11.1324L29.5536 11.1572C29.5292 10.9081 29.5165 10.7462 29.2298 10.7462H28.7323V11.7135C28.7323 11.9839 28.9721 11.9839 29.2381 11.9839C29.7365 11.9839 29.9561 11.9502 30.0808 11.4774L30.1972 11.5059C30.1427 11.7265 30.0932 11.9462 30.0564 12.1668C29.7903 12.1668 29.3127 12.1504 28.9395 12.1504C28.5653 12.1504 28.0716 12.1668 27.8349 12.1668V12.0415Z" fill="white"/>
<path d="M30.0558 12.1844C29.7892 12.1844 29.3119 12.1674 28.9391 12.1674C28.5651 12.1674 28.0716 12.1844 27.8347 12.1844H27.8171V12.0238H27.8929C28.0434 12.0215 28.1799 12.0082 28.1819 11.8052V9.62927C28.1799 9.42654 28.0434 9.41301 27.8929 9.40984H27.8171V9.24976H27.8347C28.088 9.24976 28.5199 9.26559 28.868 9.26559C29.2172 9.26559 29.6479 9.24976 29.9306 9.24976H29.9493L29.9484 9.26819C29.9455 9.33068 29.9444 9.40437 29.9444 9.48272C29.9444 9.62639 29.9484 9.78333 29.9568 9.90172L29.9574 9.91669L29.9436 9.92075L29.7976 9.95876L29.7968 9.93745C29.7723 9.66792 29.7363 9.47238 29.3088 9.46835H28.7494L28.7488 10.5197H29.2256C29.4646 10.5174 29.5074 10.395 29.5357 10.1713L29.5371 10.1549H29.6963L29.696 10.1736C29.688 10.3354 29.6828 10.4972 29.6828 10.6591C29.6828 10.8163 29.688 10.9738 29.696 11.1319L29.6963 11.1466L29.6814 11.1501L29.5371 11.1789L29.5357 11.1593C29.5072 10.9059 29.5051 10.7671 29.2293 10.7639L28.7494 10.7636V11.7136C28.7497 11.9659 28.9673 11.9644 29.238 11.9659C29.7377 11.963 29.9381 11.9388 30.0634 11.4723L30.0674 11.4556L30.085 11.4588L30.218 11.493L30.214 11.5103C30.1604 11.7303 30.1106 11.9498 30.0734 12.1697L30.07 12.1844H30.0558ZM30.0406 12.1482C30.0766 11.9388 30.124 11.7286 30.1751 11.5195L30.093 11.4988C29.9686 11.9636 29.7279 12.005 29.2379 12.0019C28.9765 12.0019 28.7145 12.0019 28.7133 11.7136V10.7282H29.2293C29.5192 10.725 29.5489 10.9001 29.5693 11.1365L29.6591 11.1178C29.6512 10.965 29.6472 10.812 29.6473 10.659C29.6473 10.5027 29.651 10.3472 29.6591 10.1908H29.5693C29.5463 10.4071 29.4786 10.5591 29.2256 10.5562H28.7134V9.43201H29.3088C29.7406 9.4291 29.8123 9.65202 29.8307 9.91321L29.9203 9.88902C29.9131 9.77181 29.9081 9.6215 29.9081 9.48269C29.9081 9.41157 29.9099 9.34447 29.9122 9.28572C29.6301 9.28688 29.2097 9.30185 28.868 9.30185C28.5268 9.30185 28.1068 9.28688 27.8526 9.28572V9.37384H27.8928C28.0408 9.37384 28.2176 9.39976 28.2182 9.62927V11.8052C28.2176 12.0341 28.0408 12.0595 27.8928 12.0606H27.8526V12.1482C28.0947 12.1478 28.5744 12.1323 28.9391 12.1323C29.3053 12.1323 29.7728 12.1478 30.0406 12.1482ZM30.7573 9.7076C30.7573 9.40465 30.5915 9.39227 30.4622 9.39227H30.3876V9.26729C30.5206 9.26729 30.7777 9.284 31.0311 9.284C31.2801 9.284 31.4796 9.26729 31.6993 9.26729C32.2221 9.26729 32.6877 9.40869 32.6877 9.99902C32.6877 10.3719 32.4387 10.6006 32.1107 10.7299L32.8204 11.7925C32.9367 11.9682 33.0193 12.0174 33.2232 12.0416V12.1669C33.0861 12.1669 32.9531 12.1504 32.8163 12.1504C32.6877 12.1504 32.5543 12.1669 32.4262 12.1669C32.1066 11.7473 31.832 11.2986 31.5622 10.8206H31.289V11.7098C31.289 12.0301 31.4379 12.0416 31.6287 12.0416H31.7036V12.1669C31.4664 12.1669 31.2266 12.1505 30.9896 12.1505C30.7901 12.1505 30.5949 12.1669 30.3876 12.1669V12.0416H30.4622C30.6165 12.0416 30.7573 11.9719 30.7573 11.8178V9.7076ZM31.289 10.6711H31.4917C31.9071 10.6711 32.1308 10.5134 32.1308 10.0232C32.1308 9.65404 31.8945 9.41704 31.5245 9.41704C31.3999 9.41704 31.3469 9.43 31.289 9.43374V10.6711H31.289Z" fill="white"/>
<path d="M33.2231 12.1842C33.0841 12.1842 32.9519 12.1675 32.8155 12.1675C32.6888 12.1675 32.5563 12.1842 32.4116 12.1773C32.0931 11.7595 31.8202 11.3134 31.5519 10.8388H31.3066V11.7091C31.3109 12.0216 31.4364 12.019 31.6284 12.0236H31.7214V12.1843H31.703C31.4657 12.1843 31.2248 12.1676 30.989 12.1676C30.7906 12.1676 30.596 12.1843 30.3876 12.1843H30.3694V12.0236H30.4621C30.6118 12.0227 30.7379 11.9576 30.7385 11.8177V9.70747C30.7354 9.41259 30.5911 9.41429 30.4621 9.41H30.3694V9.24902H30.3876C30.522 9.24902 30.7782 9.26541 31.031 9.26541C31.2789 9.26541 31.4784 9.24902 31.6996 9.24902C32.2227 9.25018 32.7046 9.39474 32.706 9.99774C32.706 10.373 32.4582 10.6071 32.1377 10.7378L32.8353 11.7825C32.9513 11.9547 33.0236 11.9977 33.2257 12.0236L33.2409 12.0259V12.1843H33.2231V12.1842ZM31.2885 10.8025H31.5723L31.5772 10.8117C31.8478 11.2889 32.1204 11.737 32.4262 12.1488C32.5529 12.1488 32.6862 12.1318 32.8155 12.1318C32.9482 12.1318 33.076 12.1462 33.2053 12.1482V12.0572C33.0103 12.033 32.9191 11.9748 32.8057 11.8024L32.0833 10.721L32.1037 10.7127C32.4285 10.5848 32.6689 10.3628 32.6692 9.99763C32.6689 9.4214 32.2215 9.28781 31.6996 9.28551C31.4804 9.28551 31.2812 9.30192 31.031 9.30192C30.7872 9.30192 30.541 9.28666 30.4051 9.28551V9.37363H30.4621C30.5911 9.37394 30.7748 9.39523 30.7748 9.70741V11.8176C30.7748 11.9844 30.6184 12.0604 30.4621 12.0607H30.4051V12.1482C30.6049 12.1476 30.7941 12.1318 30.989 12.1318C31.2213 12.1318 31.4554 12.1476 31.6852 12.1482V12.0607H31.6284C31.439 12.0603 31.2703 12.0368 31.2703 11.7091V10.8025H31.2884H31.2885ZM31.2885 10.6885H31.2703V9.41682L31.2861 9.41538C31.3428 9.41109 31.399 9.39926 31.5245 9.39926C31.9028 9.39926 32.1487 9.64518 32.1492 10.0238C32.1481 10.5197 31.9103 10.6882 31.4917 10.6885H31.2885V10.6885ZM31.4917 10.6528C31.9028 10.6493 32.1095 10.5065 32.1138 10.0239C32.1115 9.66102 31.8861 9.43583 31.5245 9.43439C31.4122 9.43439 31.3595 9.44476 31.3065 9.44939V10.6528H31.4917ZM36.042 11.3479L36.0495 11.3399V9.78254C36.0495 9.44159 35.8131 9.39206 35.6888 9.39206H35.5978V9.26734C35.7927 9.26734 35.9833 9.28375 36.1788 9.28375C36.3492 9.28375 36.5188 9.26734 36.6901 9.26734V9.39206H36.6276C36.4532 9.39206 36.2579 9.42514 36.2579 9.91933V11.8096C36.2579 11.9547 36.262 12.0998 36.2824 12.2286H36.125L33.987 9.84448V11.5559C33.987 11.9173 34.0575 12.0414 34.3771 12.0414H34.4476V12.1667C34.2694 12.1667 34.0906 12.1503 33.9124 12.1503C33.7249 12.1503 33.5341 12.1667 33.3475 12.1667V12.0414H33.4051C33.6919 12.0414 33.7791 11.8467 33.7791 11.5147V9.76529C33.7791 9.5329 33.5882 9.39209 33.4017 9.39209H33.3475V9.2674C33.5048 9.2674 33.6674 9.28378 33.8249 9.28378C33.9487 9.28378 34.0696 9.2674 34.1943 9.2674L36.042 11.3479Z" fill="white"/>
<path d="M36.2824 12.2466L36.1115 12.2409L34.0043 9.89163V11.5558C34.0092 11.9172 34.0639 12.0197 34.3771 12.0238H34.465V12.1844H34.4468C34.2672 12.1844 34.0892 12.1674 33.9113 12.1674C33.7259 12.1674 33.5342 12.1844 33.3473 12.1844H33.3286V12.0238H33.4049C33.679 12.0226 33.7576 11.8461 33.7602 11.5138V9.7655C33.7599 9.54431 33.5788 9.41015 33.4015 9.40983H33.3286V9.24917H33.3473C33.5057 9.24917 33.6681 9.26556 33.8247 9.26556C33.9467 9.26556 34.0671 9.24917 34.2064 9.2549L36.0315 11.3105V9.78247C36.0303 9.45245 35.8092 9.41156 35.6886 9.40986H35.5788V9.24917H35.597C35.7934 9.24917 35.9845 9.26556 36.1785 9.26556C36.3479 9.26556 36.518 9.24917 36.689 9.24917H36.7071V9.40986H36.6274C36.4561 9.41447 36.2796 9.4297 36.2753 9.91957V11.8095C36.2753 11.9546 36.279 12.0986 36.3 12.2265L36.3023 12.2466H36.2824ZM36.1247 12.2103H36.2612C36.243 12.0856 36.239 11.9474 36.239 11.8095V9.91954C36.2393 9.42103 36.4495 9.37499 36.6274 9.37355H36.6708V9.28572C36.5079 9.28687 36.3435 9.30184 36.1785 9.30184C35.988 9.30184 35.8028 9.28687 35.6148 9.28572V9.37355H35.6885C35.8163 9.37499 36.068 9.43085 36.068 9.78247L36.0623 11.3525L36.0542 11.3611L36.0415 11.3744L34.1938 9.28575C34.0705 9.28575 33.9502 9.30187 33.8247 9.30187C33.671 9.30187 33.5158 9.2869 33.3646 9.28575V9.37358H33.4014C33.5964 9.37502 33.7965 9.52217 33.7965 9.7655V11.5137C33.7965 11.8472 33.7026 12.0594 33.4049 12.0606L33.3646 12.0603V12.1481C33.544 12.1473 33.7291 12.1323 33.9114 12.1323C34.0856 12.1323 34.258 12.1473 34.4296 12.1481V12.0606H34.3772C34.0501 12.0603 33.9684 11.9172 33.9678 11.5558V9.79859L36.1247 12.2103ZM36.0418 11.3479L36.0544 11.3361L36.0418 11.3479ZM36.0314 11.3401V11.3386L36.0282 11.3355L36.0314 11.3401ZM37.3576 11.5728C37.3156 11.7136 37.2655 11.8224 37.2655 11.8965C37.2655 12.0214 37.4402 12.0416 37.5767 12.0416H37.623V12.1669C37.4567 12.1579 37.287 12.1504 37.1198 12.1504C36.9704 12.1504 36.8218 12.158 36.6721 12.1669V12.0416H36.6971C36.8589 12.0416 36.9963 11.9462 37.0576 11.7715L37.7226 9.86566C37.7762 9.71188 37.8516 9.50426 37.8767 9.35022C38.0089 9.30501 38.1753 9.22208 38.2539 9.17197C38.2668 9.16768 38.274 9.16333 38.287 9.16333C38.2994 9.16333 38.3074 9.16333 38.3166 9.17629C38.3287 9.20912 38.3408 9.24684 38.3541 9.27996L39.1178 11.4524C39.1676 11.5975 39.2168 11.751 39.2707 11.876C39.3208 11.9923 39.4083 12.0416 39.5457 12.0416H39.5701V12.1669C39.3833 12.1579 39.1962 12.1505 38.9975 12.1505C38.794 12.1505 38.5858 12.158 38.3742 12.1669V12.0416H38.4203C38.5153 12.0416 38.6777 12.0255 38.6777 11.9215C38.6777 11.8677 38.6402 11.7556 38.5939 11.6223L38.4324 11.1405H37.4901L37.3576 11.5728ZM37.9633 9.73265H37.955L37.5689 10.9081H38.3448L37.9633 9.73265Z" fill="white"/>
<path d="M39.5678 12.1843C39.381 12.1759 39.1941 12.1673 38.9963 12.1673C38.7928 12.1673 38.5861 12.1759 38.3736 12.1843L38.3549 12.1854V12.023H38.4188C38.515 12.023 38.6577 12.0011 38.6577 11.9214C38.6589 11.8741 38.6215 11.7601 38.5757 11.628L38.4176 11.1583H37.5018L37.3728 11.5778C37.3308 11.7195 37.281 11.8292 37.2813 11.8969C37.2827 11.9983 37.4379 12.023 37.5755 12.023H37.6394V12.1854L37.6207 12.1843C37.4546 12.1759 37.285 12.1673 37.1195 12.1673C36.9707 12.1673 36.821 12.1759 36.6721 12.1843L36.6528 12.1854V12.023H36.6957C36.8503 12.0224 36.9793 11.9346 37.0392 11.7656L37.704 9.85953C37.7584 9.70547 37.8332 9.49842 37.8692 9.33284C37.9994 9.28878 38.166 9.20527 38.2461 9.15458C38.2576 9.15084 38.2691 9.14508 38.2861 9.14508C38.2962 9.14479 38.3186 9.14738 38.3319 9.1693C38.3437 9.20354 38.3566 9.24043 38.3693 9.27412L39.134 11.4463C39.183 11.592 39.2325 11.7455 39.2866 11.8682C39.3347 11.979 39.411 12.0225 39.5446 12.0231H39.5869V12.1855L39.5678 12.1843ZM38.3911 12.1471C38.5967 12.1399 38.798 12.1319 38.9963 12.1319C39.1892 12.1319 39.3697 12.1399 39.5502 12.1471V12.0604H39.5445C39.4023 12.0613 39.3041 12.0055 39.2531 11.8831C39.199 11.7569 39.1483 11.6029 39.0997 11.4574L38.3353 9.28558C38.3226 9.25246 38.3105 9.21474 38.2996 9.18537C38.2962 9.18134 38.297 9.18133 38.2936 9.18133H38.286C38.2774 9.18133 38.2725 9.18393 38.2618 9.18681C38.1818 9.23893 38.0152 9.32042 37.8922 9.35296C37.8666 9.5102 37.792 9.71753 37.7379 9.87131L37.0734 11.7777C37.0101 11.9579 36.8647 12.0607 36.6957 12.0604H36.6891V12.1471C36.8313 12.1399 36.9752 12.1319 37.1195 12.1319C37.2798 12.1319 37.4439 12.1399 37.6023 12.1471V12.0604H37.5755C37.4405 12.0587 37.2516 12.0434 37.2464 11.8969C37.2467 11.8139 37.2977 11.7077 37.3382 11.5675L37.3564 11.5729L37.3382 11.5668L37.475 11.1228H38.443L38.6096 11.6164C38.6563 11.7497 38.694 11.8603 38.694 11.9214C38.6882 12.0489 38.5129 12.0579 38.4188 12.0605H38.3911V12.1471H38.3911ZM37.5424 10.9258L37.94 9.71434H37.9625V9.73248L37.9579 9.73334L37.9625 9.73248V9.71434H37.9749L38.369 10.9258H37.5424ZM37.5922 10.8898H38.3189L37.9575 9.77683L37.5922 10.8898ZM37.9443 9.73769L37.9538 9.73452L37.9443 9.73769ZM39.7515 9.47475C39.44 9.47475 39.4276 9.54965 39.3651 9.85256H39.2404C39.2569 9.73651 39.2779 9.62046 39.2909 9.49951C39.3075 9.38317 39.3151 9.26738 39.3151 9.14704H39.4152C39.4483 9.27173 39.5526 9.26741 39.664 9.26741H41.8069C41.9183 9.26741 42.022 9.26338 42.0306 9.13843L42.1299 9.15513C42.114 9.26741 42.0977 9.37946 42.085 9.49174C42.0761 9.60379 42.0761 9.71607 42.0761 9.8278L41.9517 9.87416C41.9439 9.72067 41.9232 9.47475 41.6448 9.47475H40.9639V11.6846C40.9639 12.0049 41.1096 12.0415 41.3083 12.0415H41.3871V12.1667C41.2253 12.1667 40.9351 12.1503 40.7105 12.1503C40.4618 12.1503 40.1707 12.1667 40.0089 12.1667V12.0415H40.0875C40.3164 12.0415 40.4327 12.021 40.4327 11.6933V9.47475H39.7515Z" fill="white"/>
<path d="M41.3872 12.1843C41.2242 12.1843 40.9335 12.1676 40.7106 12.1676C40.4624 12.1676 40.1716 12.1843 40.009 12.1843H39.9906V12.0237H40.0876C40.3164 12.0182 40.4083 12.0153 40.414 11.6933L40.4135 9.49297H39.7516V9.45637H40.45V11.6933C40.45 12.0265 40.3156 12.0593 40.0876 12.0602H40.0266V12.1489C40.1909 12.1471 40.4696 12.1322 40.7106 12.1322C40.9274 12.1322 41.2049 12.1472 41.369 12.1489V12.0602H41.3077C41.1082 12.0593 40.9464 12.0112 40.9458 11.6847V9.45637H41.6448C41.9235 9.45752 41.9601 9.69452 41.9679 9.84859L42.0586 9.81547C42.0586 9.70719 42.0589 9.59863 42.0669 9.48978C42.0784 9.38294 42.0939 9.27639 42.1092 9.17039L42.0465 9.15974C42.0275 9.28068 41.9103 9.28733 41.807 9.28558H39.643C39.5452 9.28673 39.4392 9.28097 39.4015 9.16434H39.3335C39.3324 9.27953 39.3246 9.39129 39.3082 9.50187C39.2973 9.6162 39.2768 9.7262 39.2613 9.83534H39.3502C39.4052 9.5459 39.4412 9.45202 39.7516 9.45637V9.49294C39.4438 9.49816 39.4507 9.55025 39.3827 9.85723L39.3796 9.87134H39.2195L39.2221 9.85057C39.2393 9.7334 39.2601 9.61761 39.2722 9.49752C39.2892 9.38147 39.2972 9.26628 39.2972 9.14706V9.12892H39.4285L39.432 9.14188C39.461 9.2467 39.5367 9.24728 39.643 9.24901L39.664 9.24958H41.8069C41.9215 9.24731 42.0052 9.24555 42.0124 9.1373L42.0136 9.11743L42.0332 9.12149L42.1509 9.13992L42.1478 9.15806C42.1308 9.26922 42.115 9.38153 42.1023 9.49297C42.0939 9.60355 42.0939 9.71615 42.0939 9.82788V9.84084L42.0822 9.84545L41.935 9.89901L41.9342 9.87479C41.9235 9.71874 41.9071 9.49294 41.6448 9.49294H40.9818V11.6847C40.9861 11.998 41.1102 12.0196 41.3077 12.0236H41.405V12.1843L41.3872 12.1843ZM42.2833 12.0415H42.3415C42.4914 12.0415 42.6483 12.0213 42.6483 11.8051V9.62915C42.6483 9.41257 42.4914 9.39216 42.3415 9.39216H42.2833V9.26746C42.4454 9.26746 42.6942 9.28388 42.8971 9.28388C43.1055 9.28388 43.3546 9.26746 43.5498 9.26746V9.39216H43.4916C43.3422 9.39216 43.1839 9.4126 43.1839 9.62915V11.8051C43.1839 12.0213 43.3422 12.0415 43.4916 12.0415H43.5498V12.1668C43.3503 12.1668 43.1009 12.1504 42.894 12.1504C42.6901 12.1504 42.4454 12.1668 42.2833 12.1668V12.0415Z" fill="white"/>
<path d="M43.5495 12.1844C43.3488 12.1844 43.1004 12.1674 42.8934 12.1674C42.6904 12.1674 42.4451 12.1844 42.283 12.1844H42.2649V12.0237H42.3412C42.4912 12.0214 42.6288 12.0084 42.6294 11.8051V9.62921C42.6288 9.42648 42.4912 9.41263 42.3412 9.40978H42.2649V9.2497H42.283C42.4451 9.2497 42.6944 9.26554 42.8968 9.26554C43.1038 9.26554 43.3529 9.2497 43.5495 9.2497H43.5671V9.40978H43.4913C43.3396 9.41266 43.2034 9.42648 43.2014 9.62921V11.8051C43.2034 12.0084 43.3396 12.0214 43.4913 12.0237H43.5671V12.1844H43.5495ZM43.5308 12.1481V12.0602H43.4913C43.3425 12.0602 43.1663 12.0341 43.1663 11.8051V9.62921C43.1663 9.3997 43.3425 9.37378 43.4913 9.37378H43.5308V9.28567C43.3391 9.28682 43.0992 9.30179 42.8968 9.30179C42.7002 9.30179 42.4621 9.28682 42.3012 9.28567V9.37378H42.3412C42.4889 9.37378 42.6657 9.3997 42.6662 9.62921V11.8051C42.6657 12.034 42.4889 12.0602 42.3412 12.0602H42.3012V12.1481C42.4613 12.1463 42.6962 12.1322 42.8934 12.1322C43.0946 12.1322 43.335 12.1472 43.5308 12.1481H43.5308ZM45.2051 9.20532C46.0901 9.20532 46.7955 9.75419 46.7955 10.6385C46.7955 11.5941 46.1105 12.229 45.2267 12.229C44.3457 12.229 43.6737 11.6309 43.6737 10.7379C43.6737 9.87427 44.3417 9.20532 45.2051 9.20532ZM45.2678 12.0461C46.0734 12.0461 46.2136 11.3354 46.2136 10.7298C46.2136 10.1228 45.8866 9.38789 45.197 9.38789C44.4704 9.38789 44.2547 10.0358 44.2547 10.5919C44.2547 11.3354 44.595 12.0461 45.2678 12.0461Z" fill="white"/>
<path d="M43.6555 10.7377C43.6573 9.86403 44.3333 9.18816 45.2053 9.18701V9.22269C44.352 9.22269 43.6915 9.88303 43.6907 10.7377C43.6927 11.6206 44.3552 12.2098 45.227 12.2101C46.1021 12.2098 46.7773 11.5837 46.7787 10.6375C46.7779 9.76439 46.0831 9.22384 45.2054 9.22269V9.18701C46.0973 9.18759 46.8121 9.74193 46.8138 10.6375C46.813 11.603 46.1191 12.2447 45.227 12.2464C44.339 12.2446 43.6573 11.6405 43.6556 10.7377H43.6555V10.7377ZM44.2371 10.5917C44.2383 10.0331 44.4565 9.36901 45.1976 9.36901C45.9023 9.37076 46.2314 10.1195 46.2325 10.7297C46.2314 11.3353 46.0889 12.0633 45.2684 12.0633V12.0281C46.0578 12.027 46.1946 11.3353 46.1965 10.7297C46.1965 10.1275 45.8724 9.40676 45.1976 9.40587C44.4853 9.40673 44.2745 10.0385 44.2731 10.5917C44.2737 11.3315 44.6108 12.0264 45.2684 12.0281V12.0633C44.5791 12.0624 44.2383 11.3396 44.2371 10.5917ZM49.5937 11.3479L49.6021 11.3399V9.78253C49.6021 9.44158 49.3648 9.39205 49.2402 9.39205H49.1503V9.26733C49.3449 9.26733 49.5359 9.28374 49.7304 9.28374C49.9012 9.28374 50.0713 9.26733 50.2418 9.26733V9.39205H50.179C50.0051 9.39205 49.8096 9.42513 49.8096 9.91932V11.8095C49.8096 11.9547 49.8137 12.0998 49.8347 12.2286H49.6772L47.5386 9.84447V11.5559C47.5386 11.9173 47.6089 12.0414 47.9285 12.0414H47.9995V12.1667C47.8208 12.1667 47.6426 12.1502 47.464 12.1502C47.2772 12.1502 47.0858 12.1667 46.8989 12.1667V12.0414H46.9573C47.2444 12.0414 47.3305 11.8467 47.3305 11.5147V9.76528C47.3305 9.53289 47.1404 9.39207 46.953 9.39207H46.8989V9.26738C47.0567 9.26738 47.2188 9.28377 47.3763 9.28377C47.5009 9.28377 47.621 9.26738 47.7459 9.26738L49.5937 11.3479Z" fill="white"/>
<path d="M49.8343 12.2466L49.6624 12.2405L47.5558 9.8916V11.5561C47.5604 11.9172 47.6154 12.0194 47.9272 12.0232H48.017V12.1844H47.9989C47.8189 12.1844 47.6407 12.1677 47.4634 12.1677C47.2771 12.1677 47.0865 12.1844 46.8979 12.1844H46.8806V12.0232H46.9566C47.2304 12.0223 47.309 11.8461 47.3125 11.5149V9.7655C47.3119 9.54434 47.1308 9.41015 46.9523 9.40986H46.8806V9.24975H46.8979C47.0571 9.24975 47.2189 9.26562 47.3755 9.26562C47.4988 9.26562 47.6185 9.24975 47.759 9.25582L49.5832 11.3105V9.78309C49.582 9.45253 49.3609 9.41277 49.2394 9.40989H49.1303V9.24981H49.149C49.3445 9.24981 49.5359 9.26564 49.7291 9.26564C49.8995 9.26564 50.0688 9.24981 50.241 9.24981H50.2588V9.40989H50.1782C50.0075 9.41478 49.8307 9.43033 49.8273 9.91959V11.8095C49.8273 11.9547 49.8304 12.0995 49.8506 12.2265L49.854 12.2466H49.8343V12.2466ZM49.6765 12.2103H49.8124C49.7943 12.0856 49.7911 11.9474 49.7911 11.8095V9.91953C49.7911 9.4202 50.0004 9.37499 50.1784 9.37355H50.2232V9.28572C50.0595 9.28687 49.8954 9.30184 49.7293 9.30184C49.5404 9.30184 49.3546 9.28687 49.1667 9.28572V9.37355H49.2395C49.3682 9.37499 49.6187 9.43174 49.6187 9.78304L49.6141 11.3525L49.6063 11.3611L49.5931 11.3743L47.7453 9.28574C47.623 9.28574 47.5017 9.30187 47.3757 9.30187C47.2228 9.30187 47.067 9.2869 46.9159 9.28574V9.37357H46.9524C47.1474 9.37501 47.348 9.52217 47.348 9.7655V11.5149C47.348 11.8469 47.2553 12.0594 46.9567 12.0606L46.9159 12.0603V12.1481C47.0961 12.1473 47.2809 12.1323 47.4634 12.1323C47.6365 12.1323 47.8084 12.1473 47.9808 12.1481V12.0606H47.9273C47.6014 12.0603 47.5199 11.9172 47.5199 11.556V9.79801L49.6765 12.2103ZM49.593 11.3478L49.6062 11.336L49.593 11.3478ZM49.5832 11.3401V11.3386L49.5798 11.3355L49.5832 11.3401ZM50.9082 11.5728C50.8676 11.7136 50.8172 11.8224 50.8172 11.8964C50.8172 12.0214 50.992 12.0416 51.1282 12.0416H51.1745V12.1668C51.0084 12.1579 50.838 12.1504 50.6719 12.1504C50.5219 12.1504 50.373 12.1579 50.2242 12.1668V12.0416H50.2478C50.4104 12.0416 50.5481 11.9462 50.6094 11.7714L51.2745 9.86565C51.328 9.71188 51.4031 9.50425 51.4274 9.35022C51.5603 9.30501 51.7262 9.22208 51.8059 9.17197C51.8177 9.16768 51.8261 9.16333 51.8387 9.16333C51.8511 9.16333 51.8589 9.16333 51.8673 9.17629C51.8799 9.20912 51.8929 9.24684 51.9053 9.27996L52.6688 11.4524C52.7186 11.5975 52.7681 11.751 52.8228 11.876C52.8726 11.9923 52.9601 12.0416 53.0966 12.0416H53.122V12.1668C52.9348 12.1579 52.748 12.1504 52.5485 12.1504C52.3455 12.1504 52.1376 12.1579 51.9257 12.1668V12.0416H51.9718C52.0665 12.0416 52.2295 12.0254 52.2295 11.9215C52.2295 11.8676 52.1917 11.7556 52.1454 11.6223L51.9842 11.1405H51.0416L50.9082 11.5728ZM51.5151 9.73264H51.5068L51.1201 10.9081H51.8971L51.5151 9.73264Z" fill="white"/>
<path d="M53.1205 12.1844C52.9336 12.1769 52.7471 12.1677 52.5487 12.1677C52.3463 12.1677 52.1385 12.1769 51.9265 12.1844L51.9081 12.1855V12.0237H51.9712C52.0679 12.0237 52.211 12.0012 52.2113 11.9214C52.2121 11.8742 52.1747 11.761 52.1284 11.628L51.9706 11.1583H51.0542L50.9258 11.5779C50.8844 11.7201 50.8348 11.8293 50.8357 11.8964C50.8357 11.9983 50.9911 12.0237 51.1285 12.0237H51.1918V12.1855L51.1734 12.1844C51.0073 12.1769 50.8374 12.1677 50.6722 12.1677C50.5233 12.1677 50.3741 12.1769 50.2245 12.1844L50.2063 12.1855V12.0237H50.2481C50.4029 12.0231 50.5325 11.9341 50.593 11.7657L51.2575 9.85959C51.3104 9.70553 51.3853 9.49848 51.4221 9.33347C51.5526 9.28826 51.7192 9.20533 51.7999 9.15462C51.8108 9.15087 51.822 9.14598 51.839 9.14598C51.85 9.14482 51.8712 9.14742 51.8845 9.17017C51.8969 9.20274 51.909 9.24043 51.9228 9.27412L52.6863 11.4463C52.7358 11.592 52.7856 11.7455 52.8395 11.869C52.8881 11.979 52.9638 12.0225 53.0963 12.0237H53.1394V12.1855L53.1205 12.1844ZM51.9438 12.1478C52.1491 12.14 52.3512 12.1319 52.5487 12.1319C52.7419 12.1319 52.923 12.14 53.1038 12.1472L53.1032 12.0605H53.0963C52.9558 12.0608 52.8577 12.0055 52.8061 11.8831C52.7514 11.757 52.7019 11.6029 52.6523 11.458L51.8882 9.28564C51.8758 9.25253 51.8632 9.2148 51.8531 9.18658C51.8496 9.1814 51.85 9.1814 51.8468 9.1814H51.839C51.8304 9.1814 51.8257 9.18428 51.8156 9.18716C51.7348 9.23813 51.5683 9.32103 51.4454 9.35303C51.4198 9.51026 51.3444 9.71731 51.2909 9.87137L50.6261 11.7777C50.563 11.958 50.4179 12.0608 50.248 12.0605H50.242V12.1472C50.3848 12.14 50.5276 12.1319 50.6721 12.1319C50.8331 12.1319 50.9969 12.14 51.1567 12.1472V12.0605H51.1285C50.9935 12.0588 50.804 12.0441 50.7991 11.8964C50.8 11.814 50.8515 11.7083 50.8915 11.5675L50.9085 11.5729L50.8915 11.5669L51.0283 11.1229H51.9965L52.1629 11.6164C52.2087 11.7501 52.2464 11.8604 52.2464 11.9214C52.2403 12.049 52.0661 12.0579 51.9711 12.0605H51.9438V12.1478H51.9438ZM51.0957 10.9257L51.4938 9.71443H51.5154V9.73257L51.5111 9.73343L51.5154 9.73257V9.71443H51.5284L51.9208 10.9257H51.0957ZM51.1455 10.8899H51.8716L51.5105 9.77749L51.1455 10.8899ZM51.4981 9.73778L51.5065 9.73461L51.4981 9.73778ZM54.1684 11.7596C54.1684 11.9258 54.2835 11.9753 54.4166 11.9923C54.5867 12.0049 54.7736 12.0049 54.9654 11.9839C55.1392 11.9629 55.289 11.8633 55.3632 11.7596C55.4294 11.668 55.4669 11.5517 55.4919 11.4604H55.6122C55.5668 11.6971 55.5086 11.9303 55.4585 12.1668C55.094 12.1668 54.7278 12.1504 54.363 12.1504C53.9971 12.1504 53.6323 12.1668 53.267 12.1668V12.0415H53.324C53.4743 12.0415 53.6367 12.0213 53.6367 11.7636V9.62919C53.6367 9.41261 53.4743 9.39219 53.324 9.39219H53.267V9.2675C53.4864 9.2675 53.7026 9.28391 53.9223 9.28391C54.1347 9.28391 54.342 9.2675 54.5539 9.2675V9.39219H54.4494C54.2922 9.39219 54.1684 9.3968 54.1684 9.61623V11.7596Z" fill="white"/>
<path d="M55.4604 12.1843C55.0945 12.1843 54.7292 12.1676 54.365 12.1676C53.9993 12.1676 53.634 12.1843 53.2681 12.1843H53.2505V12.0237H53.326C53.4765 12.0202 53.6187 12.0098 53.6205 11.7636V9.62836C53.6187 9.4265 53.4774 9.41267 53.326 9.40977H53.2505V9.24968H53.2681C53.4889 9.24968 53.7051 9.26552 53.9245 9.26552C54.1352 9.26552 54.3425 9.24968 54.5558 9.24968H54.5729V9.40977H54.4516C54.2907 9.41437 54.1905 9.40689 54.1874 9.61627V11.7596C54.1885 11.9143 54.2899 11.956 54.4194 11.9742C54.4928 11.9793 54.5697 11.9825 54.6498 11.9825C54.7514 11.9825 54.857 11.9776 54.9641 11.9661C55.1334 11.9463 55.2791 11.8486 55.3505 11.7495C55.4144 11.6608 55.4513 11.5468 55.476 11.4561L55.4798 11.4423H55.6361L55.6323 11.4642C55.5854 11.7018 55.5284 11.9339 55.4781 12.1703L55.4746 12.1844H55.4604V12.1843ZM55.4455 12.1481C55.4935 11.9229 55.548 11.7025 55.5926 11.4779H55.5074C55.4814 11.5684 55.4446 11.6798 55.3793 11.7705C55.3018 11.8782 55.1481 11.9796 54.9681 12.0017C54.8593 12.013 54.7516 12.0187 54.6497 12.0187C54.5694 12.0187 54.4914 12.015 54.4162 12.0098C54.2812 11.9948 54.1502 11.9372 54.1508 11.7596V9.61621C54.1508 9.38555 54.2967 9.37374 54.4516 9.37374H54.5374V9.28562C54.3327 9.28678 54.1312 9.30201 53.9244 9.30201C53.7094 9.30201 53.4992 9.28678 53.2862 9.28562V9.37374H53.3259C53.4742 9.37374 53.6555 9.39966 53.6555 9.62831V11.7636C53.6555 12.0323 53.475 12.0602 53.3259 12.0602H53.2862V12.148C53.6452 12.1477 54.0042 12.1322 54.365 12.1322C54.7257 12.1322 55.0862 12.1477 55.4455 12.1481ZM55.5638 9.14941C55.8139 9.14941 56.0008 9.34178 56.0008 9.58828C56.0008 9.83363 55.814 10.0243 55.5638 10.0243C55.3136 10.0243 55.1264 9.83363 55.1264 9.58828C55.1264 9.34181 55.3135 9.14941 55.5638 9.14941ZM55.5638 9.94277C55.7592 9.94277 55.9096 9.77575 55.9096 9.58828C55.9096 9.39966 55.7615 9.2312 55.5638 9.2312C55.3672 9.2312 55.2168 9.39969 55.2168 9.58828C55.2168 9.77575 55.3672 9.94277 55.5638 9.94277ZM55.3461 9.81865V9.79706C55.3999 9.78957 55.4097 9.7913 55.4097 9.75789V9.43421C55.4097 9.38874 55.4048 9.37319 55.3481 9.37547V9.3533H55.5718C55.649 9.3533 55.7195 9.38987 55.7195 9.46935C55.7195 9.53443 55.6763 9.58252 55.6161 9.60124L55.6878 9.70142C55.7215 9.74692 55.7592 9.78957 55.7843 9.80451V9.81863H55.6991C55.6582 9.81863 55.6225 9.73252 55.5418 9.61705H55.4935V9.76247C55.4935 9.79127 55.5036 9.78954 55.5574 9.79703V9.81863H55.3461V9.81865ZM55.4935 9.58828H55.545C55.6014 9.58828 55.6279 9.54537 55.6279 9.47655C55.6279 9.40686 55.587 9.38235 55.5422 9.38235H55.4935V9.58828Z" fill="white"/>
</svg>
