<svg width="38" height="29" viewBox="0 0 38 29" fill="none" xmlns="http://www.w3.org/2000/svg">
<path d="M36.5485 28.6039V28.6785H36.618C36.631 28.6787 36.6439 28.6754 36.6553 28.669C36.6598 28.6658 36.6634 28.6615 36.6659 28.6565C36.6683 28.6515 36.6695 28.646 36.6692 28.6405C36.6695 28.635 36.6683 28.6296 36.6659 28.6248C36.6634 28.6199 36.6598 28.6157 36.6553 28.6127C36.644 28.6059 36.6311 28.6026 36.618 28.6032H36.5485V28.6039ZM36.6187 28.5512C36.6485 28.5494 36.678 28.5579 36.7022 28.5754C36.7119 28.5834 36.7196 28.5935 36.7247 28.6049C36.7298 28.6164 36.7321 28.6289 36.7315 28.6414C36.7319 28.6522 36.7301 28.6629 36.726 28.6729C36.722 28.6829 36.7158 28.6919 36.708 28.6993C36.6894 28.7156 36.6659 28.7253 36.6413 28.7271L36.7345 28.8333H36.6627L36.577 28.7279H36.5492V28.8333H36.4892V28.5514H36.6197L36.6187 28.5512ZM36.6001 28.9306C36.6316 28.9309 36.6628 28.9246 36.6916 28.912C36.7194 28.9 36.7447 28.8829 36.7662 28.8615C36.7877 28.8401 36.8048 28.8148 36.8167 28.7869C36.8411 28.7279 36.8411 28.6615 36.8167 28.6024C36.8046 28.5747 36.7875 28.5494 36.7662 28.5279C36.7447 28.5065 36.7194 28.4894 36.6916 28.4774C36.6626 28.4655 36.6315 28.4595 36.6001 28.4599C36.5682 28.4596 36.5365 28.4655 36.5069 28.4774C36.4784 28.4891 36.4525 28.5063 36.4306 28.5279C36.3977 28.5617 36.3754 28.6045 36.3665 28.6509C36.3577 28.6973 36.3627 28.7452 36.3809 28.7888C36.3922 28.8168 36.4092 28.8421 36.4306 28.8633C36.4526 28.8849 36.4785 28.9021 36.5069 28.9138C36.5363 28.9264 36.5681 28.9328 36.6001 28.9325V28.9306ZM36.6001 28.392C36.682 28.392 36.7607 28.4241 36.8191 28.4815C36.8473 28.5091 36.8697 28.5419 36.8851 28.5782C36.901 28.6155 36.9092 28.6556 36.9092 28.6961C36.9092 28.7366 36.901 28.7767 36.8851 28.814C36.8694 28.85 36.847 28.8828 36.8191 28.9107C36.7905 28.9381 36.7572 28.9602 36.7209 28.9759C36.6827 28.9921 36.6416 29.0004 36.6001 29.0001C36.5581 29.0004 36.5165 28.9922 36.4778 28.9759C36.441 28.9605 36.4074 28.9384 36.3788 28.9107C36.351 28.8818 36.3289 28.8479 36.3138 28.8108C36.2978 28.7735 36.2896 28.7334 36.2896 28.6929C36.2896 28.6524 36.2978 28.6123 36.3138 28.575C36.3292 28.5388 36.3516 28.5059 36.3798 28.4783C36.408 28.4501 36.4417 28.4279 36.4787 28.4131C36.5174 28.3968 36.559 28.3886 36.601 28.3889L36.6001 28.392ZM8.05766 27.3032C8.05766 26.7656 8.40997 26.3239 8.98577 26.3239C9.53604 26.3239 9.90736 26.7466 9.90736 27.3032C9.90736 27.8598 9.53604 28.2825 8.98577 28.2825C8.40997 28.2825 8.05766 27.8408 8.05766 27.3032ZM10.5346 27.3032V25.7732H9.86934V26.1459C9.65833 25.8705 9.33827 25.6978 8.90301 25.6978C8.04554 25.6978 7.37262 26.3701 7.37262 27.3039C7.37262 28.2377 8.04517 28.9101 8.90301 28.9101C9.33808 28.9101 9.65833 28.7372 9.86934 28.4619V28.8333H10.5339V27.3032H10.5346ZM33.0136 27.3032C33.0136 26.7656 33.3659 26.3239 33.9419 26.3239C34.4928 26.3239 34.8635 26.7466 34.8635 27.3032C34.8635 27.8598 34.4928 28.2825 33.9419 28.2825C33.3661 28.2825 33.0136 27.8408 33.0136 27.3032ZM35.4913 27.3032V24.5452H34.8255V26.1459C34.6145 25.8705 34.2944 25.6978 33.8592 25.6978C33.0017 25.6978 32.3288 26.3701 32.3288 27.3039C32.3288 28.2377 33.0013 28.9101 33.8592 28.9101C34.2944 28.9101 34.6145 28.7372 34.8255 28.4619V28.8333H35.4913V27.3032ZM18.7916 26.2924C19.2204 26.2924 19.4957 26.5611 19.566 27.0343H17.9785C18.0496 26.5926 18.3178 26.2924 18.7918 26.2924H18.7916ZM18.8051 25.6961C17.9085 25.6961 17.2812 26.3483 17.2812 27.3023C17.2812 28.2748 17.9336 28.9084 18.8496 28.9084C19.3104 28.9084 19.7324 28.7935 20.1038 28.4798L19.7777 27.9869C19.5212 28.1919 19.1947 28.3069 18.8876 28.3069C18.4589 28.3069 18.0686 28.1084 17.9726 27.5577H20.2443C20.2508 27.475 20.2575 27.3915 20.2575 27.3021C20.2508 26.3485 19.661 25.6959 18.8047 25.6959L18.8051 25.6961ZM26.8369 27.3021C26.8369 26.7644 27.1892 26.3228 27.765 26.3228C28.3153 26.3228 28.6866 26.7454 28.6866 27.3021C28.6866 27.8587 28.3153 28.2814 27.765 28.2814C27.1892 28.2814 26.8367 27.8397 26.8367 27.3021H26.8369ZM29.3137 27.3021V25.7732H28.6488V26.1459C28.437 25.8705 28.1177 25.6978 27.6824 25.6978C26.825 25.6978 26.1521 26.3701 26.1521 27.3039C26.1521 28.2377 26.8246 28.9101 27.6824 28.9101C28.1177 28.9101 28.437 28.7372 28.6488 28.4619V28.8333H29.3139V27.3032L29.3137 27.3021ZM23.0799 27.3021C23.0799 28.2299 23.726 28.9082 24.7121 28.9082C25.1729 28.9082 25.4799 28.8058 25.8119 28.5436L25.4924 28.0059C25.2426 28.1854 24.9803 28.2814 24.6908 28.2814C24.1597 28.2748 23.7692 27.8909 23.7692 27.3021C23.7692 26.7132 24.1597 26.3295 24.6908 26.3228C24.9796 26.3228 25.2418 26.4188 25.4924 26.5982L25.8119 26.0606C25.4793 25.7984 25.1723 25.6959 24.7121 25.6959C23.726 25.6959 23.0799 26.374 23.0799 27.3021ZM31.6564 25.6959C31.2726 25.6959 31.0226 25.8754 30.8498 26.1441V25.7732H30.1905V28.8317H30.8566V27.1172C30.8566 26.6111 31.0741 26.3299 31.509 26.3299C31.6514 26.3278 31.7928 26.354 31.925 26.4068L32.1301 25.7799C31.9828 25.722 31.7908 25.6965 31.6561 25.6965L31.6564 25.6959ZM13.8237 26.0164C13.5037 25.8055 13.0627 25.6965 12.5761 25.6965C11.8011 25.6965 11.3021 26.0679 11.3021 26.6756C11.3021 27.1742 11.6736 27.4819 12.3577 27.5779L12.6719 27.6226C13.0367 27.6738 13.209 27.7698 13.209 27.9426C13.209 28.179 12.9667 28.314 12.5116 28.314C12.0508 28.314 11.7183 28.1667 11.494 27.994L11.1814 28.5126C11.5462 28.7813 12.007 28.9096 12.506 28.9096C13.3896 28.9096 13.9017 28.4936 13.9017 27.9113C13.9017 27.3736 13.4987 27.0924 12.8328 26.9965L12.5193 26.951C12.2313 26.9137 12.0005 26.8558 12.0005 26.6508C12.0005 26.4271 12.218 26.2926 12.583 26.2926C12.9735 26.2926 13.3516 26.4398 13.5369 26.5548L13.8249 26.0172L13.8237 26.0164ZM22.4079 25.697C22.0241 25.697 21.7741 25.8765 21.6021 26.1452V25.7732H20.9428V28.8317H21.608V27.1172C21.608 26.6111 21.8256 26.3299 22.2605 26.3299C22.4029 26.3278 22.5443 26.354 22.6765 26.4068L22.8816 25.7799C22.7343 25.722 22.5423 25.6965 22.4075 25.6965L22.4079 25.697ZM16.7307 25.7732H15.6429V24.8454H14.9703V25.7732H14.3498V26.3811H14.9703V27.7763C14.9703 28.486 15.2458 28.9086 16.0328 28.9086C16.3216 28.9086 16.6541 28.8192 16.8651 28.6721L16.673 28.1026C16.4744 28.2176 16.2569 28.2756 16.0839 28.2756C15.7514 28.2756 15.6429 28.0706 15.6429 27.7637V26.3817H16.7307V25.7732ZM6.78432 28.8324V26.913C6.78432 26.1901 6.32353 25.7037 5.5807 25.6972C5.19018 25.6907 4.78736 25.8122 4.50533 26.2414C4.29432 25.9022 3.96177 25.6972 3.49427 25.6972C3.1675 25.6972 2.84818 25.7932 2.59821 26.1513V25.7732H1.93237V28.8317H2.60343V27.1358C2.60343 26.6049 2.89795 26.3228 3.35278 26.3228C3.79456 26.3228 4.01807 26.6107 4.01807 27.1291V28.8313H4.69062V27.1355C4.69062 26.6046 4.99763 26.3224 5.43922 26.3224C5.89349 26.3224 6.11028 26.6103 6.11028 27.1288V28.8309L6.78432 28.8324Z" fill="white"/>
<path d="M36.9266 18.6584V18.2112H36.81L36.6753 18.5181L36.5413 18.2112H36.4244V18.6584H36.5071V18.3215L36.6332 18.6122H36.7189L36.8449 18.3208V18.6584H36.9269H36.9266ZM36.1875 18.6584V18.2878H36.3366V18.2123H35.9556V18.2878H36.1047V18.6584H36.1867H36.1875Z" fill="#F79410"/>
<path d="M23.6835 20.5767H13.6016V2.46326H23.6837L23.6835 20.5767Z" fill="#FF5F00"/>
<path d="M14.2414 11.5198C14.2414 7.84545 15.9623 4.57235 18.642 2.46303C16.6136 0.86403 14.1047 -0.00380321 11.5215 1.25293e-05C5.15822 1.25293e-05 0 5.1575 0 11.5198C0 17.882 5.15822 23.0395 11.5215 23.0395C14.1048 23.0434 16.6137 22.1755 18.6422 20.5765C15.9627 18.4675 14.2414 15.1943 14.2414 11.5198Z" fill="#EB001B"/>
<path d="M37.2865 11.5204C37.2865 17.8826 32.1283 23.0401 25.7649 23.0401C23.1814 23.0439 20.6722 22.1761 18.6433 20.5771C21.3238 18.4678 23.0447 15.1949 23.0447 11.5204C23.0447 7.84587 21.3238 4.57296 18.6433 2.46364C20.6721 0.864688 23.1813 -0.00312598 25.7648 0.000622444C32.1281 0.000622444 37.2863 5.15811 37.2863 11.5204" fill="#F79E1B"/>
</svg>
