<svg width="56" height="20" viewBox="0 0 56 20" fill="none" xmlns="http://www.w3.org/2000/svg">
<path d="M22.7012 18.2578V7.04411C22.7012 4.98088 24.3738 3.30833 26.4371 3.30833L29.7479 3.31321C31.8053 3.31733 33.4709 4.98627 33.4709 7.0436V9.43052C33.4709 11.4938 31.7982 13.1665 29.735 13.1665H25.0565" stroke="white" stroke-width="1.26" stroke-miterlimit="10" stroke-linecap="round" stroke-linejoin="round"/>
<path d="M34.396 3.30665H35.8322C36.679 3.30665 37.3653 3.99308 37.3653 4.83985V13.2166" stroke="white" stroke-width="1.26" stroke-miterlimit="10" stroke-linecap="round" stroke-linejoin="round"/>
<path d="M37.0572 2.00891L36.4059 1.35753C36.2443 1.19599 36.2443 0.933925 36.4059 0.772301L37.0568 0.121432C37.2186 -0.0404494 37.481 -0.0404494 37.6428 0.121432L38.2938 0.772301C38.4554 0.933925 38.4554 1.19599 38.2938 1.35753L37.6425 2.00891C37.4809 2.17053 37.2188 2.17053 37.0572 2.00891Z" fill="#32BCAD"/>
<path d="M40.1204 3.29916H41.5446C42.2774 3.29916 42.9801 3.59018 43.4981 4.10831L46.8296 7.43969C47.2611 7.87134 47.9608 7.87134 48.3923 7.43969L51.7116 4.12047C52.2297 3.60244 52.9324 3.31141 53.6651 3.31141H54.823" stroke="white" stroke-width="1.26" stroke-miterlimit="10" stroke-linecap="round" stroke-linejoin="round"/>
<path d="M40.1204 13.1433H41.5446C42.2774 13.1433 42.9801 12.8523 43.4981 12.3342L46.8296 9.00269C47.2611 8.57112 47.9608 8.57112 48.3923 9.00269L51.7116 12.3219C52.2297 12.84 52.9324 13.1311 53.6651 13.1311H54.823" stroke="white" stroke-width="1.26" stroke-miterlimit="10" stroke-linecap="round" stroke-linejoin="round"/>
<path d="M14.2092 15.2714C13.4943 15.2714 12.8221 14.9931 12.3166 14.4878L9.58374 11.755C9.39195 11.5626 9.05748 11.5632 8.86569 11.755L6.12287 14.4978C5.61735 15.003 4.94505 15.2813 4.23017 15.2813H3.69165L7.15278 18.7426C8.23376 19.8234 9.98635 19.8234 11.0673 18.7426L14.5385 15.2714H14.2092Z" fill="#32BCAD"/>
<path d="M4.23008 5.60489C4.94497 5.60489 5.61726 5.88332 6.1227 6.38859L8.86551 9.13184C9.06305 9.32937 9.38561 9.33022 9.58365 9.13158L12.3164 6.39853C12.822 5.89326 13.4943 5.61492 14.2091 5.61492H14.5383L11.0672 2.14385C9.98626 1.06287 8.23367 1.06287 7.15269 2.14385L3.69165 5.60489H4.23008Z" fill="#32BCAD"/>
<path d="M17.4095 8.48596L15.3119 6.38836C15.2657 6.40687 15.2157 6.41844 15.1629 6.41844H14.2093C13.7162 6.41844 13.2335 6.61837 12.8852 6.96699L10.1523 9.69986C9.89666 9.95558 9.56065 10.0836 9.22489 10.0836C8.88887 10.0836 8.55311 9.95558 8.29739 9.70012L5.55432 6.95704C5.20587 6.60843 4.72331 6.4085 4.23021 6.4085H3.05754C3.00757 6.4085 2.96078 6.39667 2.91665 6.38005L0.810736 8.48596C-0.270245 9.56686 -0.270245 11.3194 0.810736 12.4005L2.91657 14.5063C2.9607 14.4897 3.00757 14.4779 3.05754 14.4779H4.23021C4.72331 14.4779 5.20587 14.278 5.55432 13.9294L8.29713 11.1865C8.79289 10.6912 9.65705 10.6909 10.1523 11.1868L12.8852 13.9193C13.2335 14.268 13.7162 14.468 14.2093 14.468H15.1629C15.2158 14.468 15.2657 14.4794 15.3119 14.4979L17.4095 12.4005C18.4904 11.3194 18.4904 9.56686 17.4095 8.48596Z" fill="#32BCAD"/>
<path d="M25.5477 17.3047C25.3929 17.3047 25.2127 17.3419 25.0346 17.383V18.0664C25.158 18.1115 25.2989 18.1331 25.4342 18.1331C25.7768 18.1331 25.9393 18.0176 25.9393 17.7158C25.9393 17.4319 25.8062 17.3047 25.5477 17.3047ZM24.9189 18.5737V17.2224H25.013L25.0228 17.2812C25.1814 17.244 25.4007 17.195 25.5574 17.195C25.6848 17.195 25.8062 17.2144 25.908 17.2967C26.0256 17.3928 26.0627 17.5474 26.0627 17.7158C26.0627 17.8922 26.004 18.0587 25.8434 18.1506C25.7317 18.2133 25.581 18.2387 25.4458 18.2387C25.3067 18.2387 25.1736 18.2171 25.0346 18.1761V18.5737H24.9189Z" fill="white"/>
<path d="M26.9231 17.3004C26.5803 17.3004 26.4276 17.4082 26.4276 17.7098C26.4276 18.0016 26.5784 18.1329 26.9231 18.1329C27.2638 18.1329 27.4166 18.027 27.4166 17.7254C27.4166 17.4337 27.2659 17.3004 26.9231 17.3004ZM27.3637 18.1329C27.2501 18.215 27.0974 18.2385 26.9231 18.2385C26.7449 18.2385 26.5921 18.213 26.4804 18.1329C26.3551 18.0448 26.3042 17.8997 26.3042 17.7177C26.3042 17.5374 26.3551 17.3907 26.4804 17.3004C26.5921 17.2202 26.7449 17.1948 26.9231 17.1948C27.0994 17.1948 27.2501 17.2202 27.3637 17.3004C27.4911 17.3907 27.5399 17.5374 27.5399 17.7156C27.5399 17.8978 27.489 18.0448 27.3637 18.1329Z" fill="white"/>
<path d="M28.9869 18.2112L28.6049 17.3907H28.597L28.221 18.2112H28.1173L27.71 17.2222H27.8371L28.176 18.0524H28.1839L28.552 17.2222H28.6578L29.0357 18.0524H29.0437L29.3746 17.2222H29.498L29.0905 18.2112H28.9869Z" fill="white"/>
<path d="M30.2359 17.2987C29.9186 17.2987 29.8109 17.4396 29.7913 17.6434H30.6804C30.6707 17.4183 30.5551 17.2987 30.2359 17.2987ZM30.232 18.2388C30.042 18.2388 29.9186 18.2113 29.8207 18.1289C29.7051 18.0291 29.666 17.8843 29.666 17.7179C29.666 17.5592 29.7189 17.3909 29.8502 17.2948C29.9598 17.2185 30.0949 17.195 30.2359 17.195C30.3632 17.195 30.5101 17.2086 30.6315 17.291C30.7744 17.3868 30.8019 17.5553 30.8019 17.7471H29.7874C29.7913 17.9508 29.858 18.1311 30.2417 18.1311C30.4239 18.1311 30.5943 18.1016 30.753 18.0742V18.178C30.5884 18.2075 30.4063 18.2388 30.232 18.2388Z" fill="white"/>
<path d="M31.1333 18.2114V17.2224H31.2273L31.2372 17.2813C31.4466 17.2283 31.5447 17.1951 31.7286 17.1951H31.7424V17.3047H31.715C31.5602 17.3047 31.4663 17.3261 31.2489 17.383V18.2114H31.1333Z" fill="white"/>
<path d="M32.4139 17.2987C32.0966 17.2987 31.9889 17.4396 31.9693 17.6434H32.8584C32.8487 17.4183 32.7331 17.2987 32.4139 17.2987ZM32.41 18.2388C32.2199 18.2388 32.0966 18.2113 31.9987 18.1289C31.8831 18.0291 31.844 17.8843 31.844 17.7179C31.844 17.5592 31.8969 17.3909 32.0282 17.2948C32.1378 17.2185 32.2729 17.195 32.4139 17.195C32.5412 17.195 32.6881 17.2086 32.8095 17.291C32.9524 17.3868 32.9799 17.5553 32.9799 17.7471H31.9654C31.9693 17.9508 32.036 18.1311 32.4197 18.1311C32.6019 18.1311 32.7723 18.1016 32.931 18.0742V18.178C32.7664 18.2075 32.5842 18.2388 32.41 18.2388Z" fill="white"/>
<path d="M34.2462 17.3674C34.1229 17.3222 33.9818 17.3006 33.8468 17.3006C33.504 17.3006 33.3414 17.4163 33.3414 17.7179C33.3414 18.0037 33.4746 18.129 33.7331 18.129C33.8878 18.129 34.068 18.0918 34.2462 18.0526V17.3674ZM34.2678 18.2114L34.2579 18.1526C34.0994 18.1898 33.88 18.2388 33.7234 18.2388C33.5961 18.2388 33.4746 18.2212 33.3728 18.1369C33.2553 18.0408 33.218 17.8863 33.218 17.7179C33.218 17.5417 33.2768 17.375 33.4374 17.285C33.5491 17.2204 33.6998 17.195 33.8369 17.195C33.974 17.195 34.1071 17.2185 34.2462 17.2576V16.8052H34.3618V18.2114H34.2678Z" fill="white"/>
<path d="M36.0555 17.3045C35.9007 17.3045 35.7205 17.3417 35.5424 17.3828V18.0642C35.6677 18.1113 35.8067 18.1329 35.942 18.1329C36.2846 18.1329 36.4471 18.0173 36.4471 17.7156C36.4471 17.4317 36.314 17.3045 36.0555 17.3045ZM36.3512 18.1504C36.2395 18.2131 36.0888 18.2385 35.9536 18.2385C35.8067 18.2385 35.6599 18.2131 35.511 18.1641L35.5052 18.2112H35.4268V16.8051H35.5424V17.2769C35.701 17.2419 35.9145 17.1948 36.0652 17.1948C36.1926 17.1948 36.314 17.2142 36.4158 17.2965C36.5334 17.3926 36.5706 17.5472 36.5706 17.7156C36.5706 17.892 36.5117 18.0585 36.3512 18.1504Z" fill="white"/>
<path d="M36.7238 18.591V18.4834C36.7807 18.4893 36.8336 18.4933 36.8708 18.4933C37.0137 18.4933 37.0999 18.452 37.1802 18.2894L37.2174 18.2112L36.7004 17.2221H36.8336L37.2762 18.0759H37.284L37.7051 17.2221H37.8363L37.2801 18.3326C37.1783 18.5343 37.0685 18.6008 36.8668 18.6008C36.8218 18.6008 36.7729 18.597 36.7238 18.591Z" fill="white"/>
<path d="M39.4291 17.6471H39.0453V17.9939H39.431C39.6954 17.9939 39.7952 17.9643 39.7952 17.8195C39.7952 17.6646 39.6583 17.6471 39.4291 17.6471ZM39.3586 17.085H39.0453V17.4375H39.3606C39.6211 17.4375 39.7248 17.4062 39.7248 17.2593C39.7248 17.1028 39.5936 17.085 39.3586 17.085ZM39.954 18.1173C39.813 18.2073 39.6426 18.2112 39.3311 18.2112H38.7456V16.8697H39.3175C39.5858 16.8697 39.7502 16.8735 39.8873 16.9559C39.9853 17.0147 40.0245 17.1047 40.0245 17.2222C40.0245 17.3631 39.9658 17.4571 39.813 17.5199V17.5275C39.9853 17.5669 40.097 17.6551 40.097 17.845C40.097 17.9741 40.0499 18.0585 39.954 18.1173Z" fill="white"/>
<path d="M41.2681 17.7962C41.1525 17.7864 41.0351 17.7806 40.9116 17.7806C40.7099 17.7806 40.6394 17.8217 40.6394 17.9136C40.6394 17.9998 40.6982 18.0469 40.8528 18.0469C40.9821 18.0469 41.1369 18.0176 41.2681 17.988V17.7962ZM41.3268 18.2114L41.319 18.1526C41.1506 18.1939 40.9548 18.2388 40.7823 18.2388C40.6766 18.2388 40.5629 18.2251 40.4827 18.1662C40.4084 18.1134 40.373 18.0272 40.373 17.9273C40.373 17.8157 40.4221 17.712 40.5395 17.6591C40.6433 17.6101 40.7823 17.6062 40.9097 17.6062C41.0135 17.6062 41.1525 17.6121 41.2681 17.62V17.6022C41.2681 17.4476 41.1662 17.3967 40.8881 17.3967C40.7804 17.3967 40.6492 17.4024 40.5239 17.4142V17.2144C40.6629 17.2029 40.8195 17.195 40.9488 17.195C41.1212 17.195 41.2994 17.2087 41.409 17.2869C41.5226 17.3674 41.5442 17.4791 41.5442 17.6258V18.2114H41.3268Z" fill="white"/>
<path d="M42.8355 18.2112V17.6646C42.8355 17.4846 42.7435 17.42 42.5789 17.42C42.4576 17.42 42.3048 17.4512 42.1755 17.4827V18.2112H41.8994V17.2222H42.1246L42.1343 17.2847C42.3087 17.2399 42.5025 17.1948 42.6632 17.1948C42.7846 17.1948 42.908 17.2123 43.002 17.2965C43.0802 17.3672 43.1097 17.4648 43.1097 17.606V18.2112H42.8355Z" fill="white"/>
<path d="M43.8896 18.2388C43.7624 18.2388 43.6232 18.2212 43.5214 18.135C43.4001 18.037 43.3647 17.8824 43.3647 17.7158C43.3647 17.5592 43.4156 17.3887 43.5665 17.2929C43.6898 17.2125 43.8426 17.195 44.0013 17.195C44.1148 17.195 44.2265 17.2029 44.3498 17.2144V17.426C44.2499 17.4163 44.1304 17.4085 44.0346 17.4085C43.7721 17.4085 43.6487 17.4907 43.6487 17.7179C43.6487 17.9314 43.7408 18.0233 43.9561 18.0233C44.0814 18.0233 44.2284 17.9998 44.3714 17.9725V18.1761C44.2167 18.2076 44.0483 18.2388 43.8896 18.2388Z" fill="white"/>
<path d="M45.1874 17.4024C44.9249 17.4024 44.8093 17.4848 44.8093 17.71C44.8093 17.9352 44.9229 18.0313 45.1874 18.0313C45.4478 18.0313 45.5614 17.9508 45.5614 17.7255C45.5614 17.5004 45.4499 17.4024 45.1874 17.4024ZM45.6613 18.135C45.5399 18.2171 45.3813 18.2388 45.1874 18.2388C44.9895 18.2388 44.831 18.2151 44.7115 18.135C44.5744 18.0449 44.5254 17.8961 44.5254 17.7179C44.5254 17.5396 44.5744 17.3887 44.7115 17.2987C44.831 17.2185 44.9895 17.195 45.1874 17.195C45.3832 17.195 45.5399 17.2185 45.6613 17.2987C45.7983 17.3887 45.8455 17.5396 45.8455 17.7158C45.8455 17.8941 45.7965 18.0449 45.6613 18.135Z" fill="white"/>
<path d="M47.44 18.2388C47.2737 18.2388 47.0935 18.2114 46.9582 18.0997C46.7977 17.9664 46.7488 17.7609 46.7488 17.5396C46.7488 17.3419 46.8114 17.1069 47.0209 16.9697C47.1834 16.8641 47.3852 16.8425 47.5889 16.8425C47.7378 16.8425 47.8904 16.8523 48.057 16.866V17.1069C47.914 17.0951 47.7378 17.0852 47.6007 17.0852C47.2187 17.0852 47.0562 17.2302 47.0562 17.5396C47.0562 17.855 47.207 17.996 47.489 17.996C47.673 17.996 47.8787 17.9587 48.0863 17.9156V18.1545C47.8787 18.1957 47.6613 18.2388 47.44 18.2388Z" fill="white"/>
<path d="M48.897 17.3712C48.6678 17.3712 48.5796 17.4536 48.562 17.6044H49.2279C49.2201 17.4438 49.126 17.3712 48.897 17.3712ZM48.8558 18.2388C48.6933 18.2388 48.5464 18.2192 48.4367 18.129C48.3193 18.0313 48.2781 17.8843 48.2781 17.7158C48.2781 17.565 48.3271 17.3967 48.4642 17.2987C48.5856 17.2125 48.7403 17.195 48.897 17.195C49.0379 17.195 49.2045 17.2106 49.3258 17.2948C49.4845 17.4065 49.4982 17.5789 49.5002 17.7825H48.5601C48.566 17.9333 48.6463 18.0313 48.9243 18.0313C49.0967 18.0313 49.2886 18.0058 49.4512 17.9803V18.1742C49.2612 18.2056 49.0536 18.2388 48.8558 18.2388Z" fill="white"/>
<path d="M50.7293 18.2112V17.6646C50.7293 17.4846 50.6373 17.42 50.4727 17.42C50.3514 17.42 50.1986 17.4512 50.0693 17.4827V18.2112H49.7932V17.2222H50.0184L50.0282 17.2847C50.2025 17.2399 50.3964 17.1948 50.557 17.1948C50.6784 17.1948 50.8018 17.2123 50.8958 17.2965C50.9741 17.3672 51.0035 17.4648 51.0035 17.606V18.2112H50.7293Z" fill="white"/>
<path d="M51.7895 18.2388C51.6563 18.2388 51.5348 18.2015 51.4683 18.0977C51.4194 18.0272 51.3958 17.9314 51.3958 17.7981V17.4279H51.196V17.2224H51.3958L51.4253 16.9227H51.67V17.2224H52.0597V17.4279H51.67V17.7453C51.67 17.8217 51.6759 17.8863 51.6974 17.9333C51.7269 17.9998 51.7914 18.0253 51.8776 18.0253C51.9422 18.0253 52.0206 18.0154 52.0753 18.0058V18.2035C51.9853 18.2212 51.8815 18.2388 51.7895 18.2388Z" fill="white"/>
<path d="M52.3291 18.2114V17.2224H52.5543L52.5642 17.2849C52.7464 17.2341 52.8813 17.1951 53.0538 17.1951C53.0616 17.1951 53.0734 17.1951 53.089 17.1969V17.4319C53.0576 17.43 53.0204 17.43 52.9931 17.43C52.8579 17.43 52.756 17.4456 52.6052 17.481V18.2114H52.3291Z" fill="white"/>
<path d="M54.0928 17.7962C53.9772 17.7864 53.8598 17.7806 53.7363 17.7806C53.5346 17.7806 53.464 17.8217 53.464 17.9136C53.464 17.9998 53.5229 18.0469 53.6775 18.0469C53.8068 18.0469 53.9616 18.0176 54.0928 17.988V17.7962ZM54.1515 18.2114L54.1437 18.1526C53.9752 18.1939 53.7794 18.2388 53.607 18.2388C53.5013 18.2388 53.3877 18.2251 53.3074 18.1662C53.2331 18.1134 53.1978 18.0272 53.1978 17.9273C53.1978 17.8157 53.2467 17.712 53.3642 17.6591C53.468 17.6101 53.607 17.6062 53.7344 17.6062C53.8381 17.6062 53.9772 17.6121 54.0928 17.62V17.6022C54.0928 17.4476 53.9909 17.3967 53.7128 17.3967C53.6051 17.3967 53.4739 17.4024 53.3485 17.4142V17.2144C53.4876 17.2029 53.6442 17.195 53.7735 17.195C53.9458 17.195 54.1241 17.2087 54.2337 17.2869C54.3473 17.3674 54.3689 17.4791 54.3689 17.6258V18.2114H54.1515Z" fill="white"/>
<path d="M54.7241 16.8051H55.0002V18.2112H54.7241V16.8051Z" fill="white"/>
</svg>
