<svg width="48" height="16" viewBox="0 0 48 16" fill="none" xmlns="http://www.w3.org/2000/svg">
<path fill-rule="evenodd" clip-rule="evenodd" d="M19.3989 0.2687L16.9561 15.2817H20.8644L23.3076 0.2687H19.3989ZM13.6676 0.2687L9.94126 10.5945L9.50048 8.37099L9.50079 8.37172L9.40366 7.87336C8.95267 6.90142 7.90817 5.05416 5.93588 3.47768C5.35278 3.01169 4.76499 2.61401 4.19678 2.27431L7.58346 15.2817H11.6557L17.8743 0.2687H13.6676ZM28.9214 4.4366C28.9214 2.73925 32.7279 2.95735 34.4004 3.87901L34.9581 0.654621C34.9581 0.654621 33.2368 0 31.4427 0C29.503 0 24.897 0.848259 24.897 4.96994C24.897 8.84894 30.303 8.89714 30.303 10.9337C30.303 12.9702 25.4544 12.6062 23.8543 11.3216L23.2727 14.6918C23.2727 14.6918 25.0179 15.5401 27.685 15.5401C30.3517 15.5401 34.3761 14.1585 34.3761 10.4003C34.3761 6.49708 28.9214 6.13353 28.9214 4.4366ZM44.8705 0.2687H41.7281C40.277 0.2687 39.9237 1.38753 39.9237 1.38753L34.095 15.2817H38.1688L38.9837 13.0518H43.9525L44.4109 15.2817H47.9996L44.8705 0.2687ZM40.1101 9.971L42.1639 4.35279L43.3192 9.971H40.1101Z" fill="#005BAC"/>
<path fill-rule="evenodd" clip-rule="evenodd" d="M8.23721 1.68209C8.23721 1.68209 8.07543 0.327148 6.3483 0.327148H0.073499L0 0.581792C0 0.581792 3.01617 1.19664 5.90981 3.5002C8.67508 5.70184 9.57716 8.4463 9.57716 8.4463L8.23721 1.68209Z" fill="#F6AC1D"/>
</svg>
